<svg xmlns="http://www.w3.org/2000/svg" width="106" height="29" viewBox="0 0 106 29">
    <g fill="none" fill-rule="evenodd">
        <path fill="#1C2685" stroke="#FFF" stroke-width="3" d="M5.804 11.178C5.905 5.803 10.395 1.5 15.908 1.5c3.534 0 6.728 1.785 8.55 4.606a5.876 5.876 0 0 1 2.206-.424c3.189 0 5.802 2.54 5.802 5.682 0 .47-.059.931-.173 1.376 2.675 1.275 4.476 3.948 4.476 6.987 0 4.301-3.572 7.773-7.954 7.773H10.53c-4.97 0-9.029-3.945-9.029-8.818 0-3.11 1.677-5.93 4.304-7.504z"/>
        <g fill="#439AFF" fill-rule="nonzero" transform="translate(6.227 6.648)">
            <ellipse cx="19.156" cy="5.71" rx="2.737" ry="2.538"/>
            <ellipse cx="9.749" cy="5.234" opacity=".604" rx="5.644" ry="5.234"/>
            <ellipse cx="5.302" cy="11.579" opacity=".595" rx="5.302" ry="4.917"/>
            <ellipse cx="14.88" cy="11.262" opacity=".847" rx="5.644" ry="5.234"/>
            <ellipse cx="21.38" cy="12.848" opacity=".378" rx="3.934" ry="3.648"/>
        </g>
        <path fill="#FFF" d="M50.794 21.32c-1.936 0-3.386-.5-4.35-1.499-.962-1-1.444-2.374-1.444-4.126 0-1.066.218-2.024.653-2.876.436-.852 1.09-1.525 1.96-2.02.872-.495 1.932-.743 3.18-.743.514 0 .971.04 1.373.122.402.08.835.216 1.3.407v2.227a5.993 5.993 0 0 0-2.6-.586c-.629 0-1.188.15-1.677.45-.489.3-.869.711-1.14 1.235-.27.523-.406 1.113-.406 1.77 0 1.047.278 1.887.835 2.52.556.633 1.328.95 2.316.95.465 0 .92-.07 1.365-.208a8.563 8.563 0 0 0 1.408-.592l.77 2.098a7.963 7.963 0 0 1-1.772.65c-.62.147-1.21.221-1.771.221zm7.623-.057c-.861 0-1.503-.186-1.924-.557-.42-.371-.631-.904-.631-1.599V9h2.526v9.208c0 .314.054.535.16.664.107.128.3.192.58.192.32 0 .606-.038.858-.114v2.113c-.33.067-.608.117-.835.15-.228.033-.472.05-.734.05zm6.84.057c-.949 0-1.752-.188-2.41-.564a3.692 3.692 0 0 1-1.49-1.534c-.333-.648-.5-1.376-.5-2.185 0-.8.167-1.522.5-2.17a3.692 3.692 0 0 1 1.49-1.534c.658-.376 1.461-.564 2.41-.564.939 0 1.737.188 2.396.564a3.645 3.645 0 0 1 1.48 1.534c.33.648.495 1.37.495 2.17 0 .81-.165 1.537-.494 2.185a3.645 3.645 0 0 1-1.481 1.534c-.659.376-1.457.564-2.396.564zm0-2.113c.571 0 1.004-.185 1.3-.557.295-.37.442-.908.442-1.613 0-.694-.147-1.227-.443-1.599-.295-.37-.728-.556-1.3-.556-.58 0-1.02.185-1.32.556-.3.372-.45.905-.45 1.6 0 .704.15 1.241.45 1.612.3.372.74.557 1.32.557zm13.91-6.21v8.08h-2.526v-.642c-.358.276-.723.48-1.096.614-.373.133-.772.2-1.198.2-1.094 0-1.912-.272-2.454-.814-.542-.543-.813-1.404-.813-2.584v-4.854h2.526v4.854c0 .39.1.688.298.892.199.205.535.307 1.01.307.56 0 1.137-.228 1.727-.685v-5.368h2.527zM89.203 9v12.077h-2.527v-.528c-.687.514-1.423.771-2.207.771-.736 0-1.387-.16-1.953-.478-.566-.319-1.012-.8-1.336-1.442-.324-.642-.486-1.43-.486-2.363 0-.923.162-1.706.486-2.348.324-.642.77-1.123 1.336-1.442.566-.319 1.217-.478 1.953-.478.784 0 1.52.257 2.207.77V9h2.527zM85.02 19.122c.552 0 1.103-.196 1.655-.586v-2.983c-.552-.39-1.103-.586-1.655-.586-.562 0-.985.176-1.27.529-.286.352-.43.866-.43 1.541 0 .686.144 1.204.43 1.556.285.353.708.529 1.27.529zm11.152 2.198c-1.597 0-2.795-.39-3.594-1.17-.799-.781-1.198-1.89-1.198-3.327v-6.567h2.614v6.567c0 .771.181 1.352.544 1.742.363.39.908.585 1.634.585.726 0 1.27-.195 1.634-.585.363-.39.544-.97.544-1.742v-6.567h2.614v6.567c0 1.437-.397 2.546-1.19 3.326-.795.78-1.995 1.171-3.602 1.171zm7.115-11.064h2.614v10.821h-2.614v-10.82z"/>
    </g>
</svg>
