<svg xmlns="http://www.w3.org/2000/svg" width="39" height="29" viewBox="0 0 39 29">
    <g fill="none" fill-rule="evenodd">
        <path fill="#1C2685" stroke="#FFF" stroke-width="3" d="M5.804 11.178C5.905 5.803 10.395 1.5 15.908 1.5c3.534 0 6.728 1.785 8.55 4.606a5.876 5.876 0 0 1 2.206-.424c3.189 0 5.802 2.54 5.802 5.682 0 .47-.059.931-.173 1.376 2.675 1.275 4.476 3.948 4.476 6.987 0 4.301-3.572 7.773-7.954 7.773H10.53c-4.97 0-9.029-3.945-9.029-8.818 0-3.11 1.677-5.93 4.304-7.504z"/>
        <g fill="#439AFF" fill-rule="nonzero" transform="translate(6.227 6.648)">
            <ellipse cx="19.156" cy="5.71" rx="2.737" ry="2.538"/>
            <ellipse cx="9.749" cy="5.234" opacity=".604" rx="5.644" ry="5.234"/>
            <ellipse cx="5.302" cy="11.579" opacity=".595" rx="5.302" ry="4.917"/>
            <ellipse cx="14.88" cy="11.262" opacity=".847" rx="5.644" ry="5.234"/>
            <ellipse cx="21.38" cy="12.848" opacity=".378" rx="3.934" ry="3.648"/>
        </g>
    </g>
</svg>
