<svg xmlns="http://www.w3.org/2000/svg" viewBox="0 0 562.98701 417.081" height="417.081" width="562.987"><path d="M546.021 0H413.055c-9.373 0-16.982 7.484-16.982 16.721v383.384c0 9.376 7.61 16.976 16.982 16.976H546.02c9.369 0 16.966-7.6 16.966-16.976V16.72C562.987 7.484 555.39 0 546.021 0" fill="#591544"/><path d="M348.095 61.067H214.91c-.653 0-1.301.05-1.938.123-.172.02-.34.051-.512.077-.479.072-.95.153-1.418.262-.155.038-.307.08-.463.122-.51.135-1.015.29-1.509.473l-.225.08c-.329.128-.591.367-.91.515-.87.41-1.714.863-2.496 1.41-.265.182-.583.282-.837.478-.47.363-.825.838-1.255 1.247-.192.186-.367.385-.552.58-.318.332-.654.64-.945.996-.183.225-.433.385-.604.62l.005.011c-2.064 2.805-3.321 6.234-3.321 9.984v145.364c.071-.012.144-.027.215-.038v176.734c0 9.376 7.607 16.976 16.985 16.976h132.964c9.375 0 16.965-7.6 16.965-16.976V78.045c0-9.375-7.59-16.978-16.965-16.978" fill="#7c165b"/><path d="M149.948 116.411H16.976C7.6 116.411 0 124.01 0 133.385v266.72c0 9.376 7.6 16.976 16.976 16.976h132.972c9.375 0 16.973-7.6 16.973-16.976v-266.72c0-9.376-7.598-16.974-16.973-16.974" fill="#98156b"/></svg>