<svg xmlns="http://www.w3.org/2000/svg" xmlns:xlink="http://www.w3.org/1999/xlink" viewBox="0 0 206.4 206.4" height="206.4" width="206.4"><defs><radialGradient id="c" cx="97.711" cy="105.704" r="143.793" gradientTransform="matrix(1.0909 0 0 1.093 -10.91 -37.256)" gradientUnits="userSpaceOnUse"><stop offset="0" stop-color="#4b3d31"/><stop offset=".767" stop-color="#241405"/></radialGradient><clipPath id="b"><use xlink:href="#a" width="100%" height="100%" overflow="visible"/></clipPath></defs><g transform="translate(-16.8 -13.8)"><defs><ellipse ry="99.7" rx="96.8" cy="116" cx="120.2" id="a"/></defs><path clip-path="url(#b)" class="st0" clip-rule="evenodd" fill="url(#c)" fill-rule="evenodd" d="M0 0h240v235H0z"/></g><path d="M0 103.2c0 57 46.2 103.2 103.2 103.2s103.2-46.2 103.2-103.2S160.2 0 103.2 0 0 46.2 0 103.2zm10.6 0c0-51.2 41.5-92.7 92.6-92.7 51.1 0 92.6 41.5 92.6 92.7s-41.5 92.7-92.6 92.7c-51.1 0-92.6-41.5-92.6-92.7z" class="st1" clip-rule="evenodd" fill="#ff7618" fill-rule="evenodd"/><path d="M103.2 41.9c7.6 0 14.2 4.4 17.4 10.8-1.7 1-3.3 2.3-4.8 3.7-3.4 3.4-7.8 5.2-12.6 5.2-4.7 0-9.2-1.8-12.6-5.2-1.5-1.5-3.1-2.7-4.8-3.7 3.2-6.4 9.8-10.8 17.4-10.8zm19.2 17.2c.1.7.1 1.4.1 2.1 0 12.4 10.1 22.6 22.6 22.6.7 0 1.4 0 2.1.1-.6.8-1.2 1.5-1.8 2.2-4.6 4.6-7.1 10.6-7.1 17.1 0 6.4 2.5 12.5 7.1 17.1.7.7 1.3 1.4 1.8 2.2-.7.1-1.4.1-2.1.1-12.4 0-22.6 10.1-22.6 22.6 0 .7 0 1.4-.1 2.1-.8-.6-1.5-1.2-2.2-1.9-4.6-4.6-10.6-7.1-17.1-7.1-6.5 0-12.5 2.5-17.1 7.1-.7.7-1.4 1.3-2.2 1.9-.1-.7-.1-1.4-.1-2.1 0-12.4-10.1-22.6-22.6-22.6-.7 0-1.4 0-2.1-.1.6-.8 1.2-1.5 1.8-2.2 4.6-4.6 7.1-10.6 7.1-17.1 0-6.4-2.5-12.5-7.1-17.1-.7-.7-1.3-1.4-1.8-2.2.7-.1 1.4-.1 2.1-.1 12.4 0 22.6-10.1 22.6-22.6 0-.7 0-1.4.1-2.1.8.6 1.5 1.2 2.2 1.9 4.6 4.6 10.6 7.1 17.1 7.1 6.5 0 12.5-2.5 17.1-7.1.8-.7 1.5-1.3 2.2-1.9zm31.3 26.7c6.4 3.2 10.8 9.8 10.8 17.4 0 7.6-4.4 14.2-10.8 17.4-1-1.7-2.3-3.3-3.7-4.8-3.4-3.4-5.2-7.8-5.2-12.6s1.8-9.2 5.2-12.6c1.4-1.4 2.6-3 3.7-4.8zm-33.1 67.9c-3.2 6.4-9.8 10.8-17.4 10.8-7.6 0-14.2-4.4-17.4-10.8 1.7-1 3.4-2.3 4.8-3.7 3.4-3.4 7.8-5.2 12.6-5.2 4.7 0 9.2 1.8 12.6 5.2 1.4 1.4 3 2.6 4.8 3.7zm-67.9-33.1c-6.4-3.2-10.8-9.8-10.8-17.4 0-7.6 4.4-14.2 10.8-17.4 1 1.7 2.3 3.3 3.7 4.8 3.4 3.4 5.2 7.8 5.2 12.6s-1.9 9.2-5.2 12.6c-1.4 1.4-2.6 3-3.7 4.8zm50.5 47.1c8.9 0 16.5-5.1 20.2-12.6 2.9 1.2 6.1 1.9 9.4 1.9 6.5 0 12.5-2.5 17.1-7.1 4.6-4.6 7.1-10.6 7.1-17.1 0-3.3-.7-6.5-1.9-9.4 7.4-3.7 12.6-11.4 12.6-20.2 0-8.8-5.1-16.5-12.6-20.2 1.2-2.9 1.9-6.1 1.9-9.4 0-6.4-2.5-12.5-7.1-17.1-4.6-4.6-10.6-7.1-17.1-7.1-3.3 0-6.5.7-9.4 1.9-3.7-7.4-11.4-12.7-20.2-12.7-8.9 0-16.5 5.2-20.2 12.7-2.9-1.2-6.1-1.9-9.4-1.9-6.5 0-12.5 2.5-17.1 7.1-4.6 4.6-7.1 10.6-7.1 17.1 0 3.3.6 6.5 1.9 9.4-7.4 3.7-12.6 11.4-12.6 20.2 0 8.8 5.1 16.5 12.6 20.2-1.2 2.9-1.9 6.1-1.9 9.4 0 6.4 2.5 12.5 7.1 17.1 4.6 4.6 10.6 7.1 17.1 7.1 3.3 0 6.5-.7 9.4-1.9 3.7 7.4 11.3 12.6 20.2 12.6zm22.2-18.7c.2-1.3.3-2.5.3-3.9 0-10.7 8.7-19.4 19.4-19.4 1.3 0 2.6-.1 3.9-.3 1.1 2.3 1.6 4.8 1.6 7.4 0 4.7-1.9 9.2-5.2 12.6-3.4 3.4-7.8 5.2-12.6 5.2-2.6 0-5.1-.6-7.4-1.6zM149 81c-1.3-.2-2.6-.3-3.9-.3-10.7 0-19.4-8.7-19.4-19.4 0-1.3-.1-2.6-.3-3.9 2.3-1.1 4.8-1.6 7.4-1.6 4.8 0 9.2 1.8 12.6 5.2 3.3 3.4 5.2 7.8 5.2 12.6 0 2.6-.5 5.1-1.6 7.4zM81 57.4c-.2 1.3-.3 2.6-.3 3.9 0 10.7-8.7 19.4-19.4 19.4-1.3 0-2.6.1-3.9.3-1.1-2.3-1.6-4.8-1.6-7.4 0-4.7 1.9-9.2 5.2-12.6 3.4-3.4 7.8-5.2 12.6-5.2 2.6 0 5.1.6 7.4 1.6zm-23.6 68c1.3.2 2.5.3 3.9.3 10.7 0 19.4 8.7 19.4 19.4 0 1.3.1 2.6.3 3.9-2.3 1.1-4.8 1.6-7.4 1.6-4.8 0-9.2-1.8-12.6-5.2-3.4-3.4-5.2-7.8-5.2-12.6 0-2.6.5-5.1 1.6-7.4z" class="st2" clip-rule="evenodd" fill="#ffe0cb" fill-rule="evenodd"/></svg>