<svg xmlns="http://www.w3.org/2000/svg" width="52.513" height="51.2" viewBox="0 0 52.513001 51.200002"><path fill="#1f2600" d="M0 0h52.513v51.2H0z"/><path d="M0 0v51.2h52.513V0H0zm2.188 2.188h48.137v46.824H2.188V2.188zm6.733 9.463h5.127c.18 0 .253.037.289.218.902 3.358 3.502 14.26 4.115 17.943h.037c.685-3.358 3.718-14.394 4.657-17.932.036-.18.108-.229.289-.229h4.945c.18 0 .217.036.253.18l.866 23.654c.037.217-.072.289-.252.289h-3.502c-.217 0-.253-.1-.253-.28-.144-7.727-.144-18.648-.144-20.56h-.036c-.614 3.068-3.791 15.397-5.163 20.56-.036.216-.144.28-.289.28h-3.177c-.18 0-.288-.064-.325-.245-1.335-5.379-3.79-16.516-4.62-20.596h-.073c0 2.852-.289 12.726-.578 20.56 0 .217-.108.281-.252.281H7.658c-.217 0-.29-.072-.29-.253l1.3-23.653c.037-.18.073-.217.253-.217zM45.183 32.11c0 .252.036 1.01.108 2.238 0 .144-.014.217-.16.253-1.913.722-4.033 1.48-6.705 1.48-3.285 0-6.426-1.264-6.426-6.318V18.23c0-.181.072-.29.253-.29h3.432c.181 0 .253.109.253.29v11.062c0 2.13.806 3.286 3.044 3.286.903 0 1.72-.18 2.262-.397v-13.95c0-.181.072-.289.253-.289h3.432c.217 0 .253.108.253.289V32.11z" fill="#c1e800"/></svg>