<svg xmlns="http://www.w3.org/2000/svg" width="512" height="512" viewBox="0 0 512 512"><g fill="#008cdb"><path d="M273.971 437.617c-78.241-23.9-135.099-96.163-135.099-181.622 0-86.376 58.091-159.287 137.634-182.373 8.13-2.355 5.994-7.622-3.799-7.622C166.942 66 81.22 151.063 81.22 255.995 81.22 360.937 166.942 446 272.708 446c9.797 0 10.192-5.652 1.263-8.383z"/><path d="M175.135 300.485c-5.643-54.204 20.877-162.662 150.07-166.31 78.744-2.224 102.435 35.2 105.355 32.898 3.214-2.531-28.582-72.253-121.088-72.253-83.323 0-150.859 67.547-150.859 150.869 0 19.243 3.613 37.629 10.192 54.551 2.77 7.112 7.042 7.136 6.33.245z"/><path d="M238.342 191.77c39.194-17.083 88.473-17.561 136.878-.668 32.503 11.348 51.371 27.538 52.902 26.895 2.565-1.111-18.921-35.132-57.686-49.83-46.943-17.814-97.543-8.495-134.376 20.385-4.073 3.178-2.527 5.319 2.282 3.218z"/></g></svg>