<svg xmlns="http://www.w3.org/2000/svg" viewBox="0 0 36.429001 36.429001" height="36.429" width="36.429"><g fill="#46aeda" fill-rule="evenodd"><path d="M21.414 12.834l-2.458 8.732 7.916-4.35a9.065 9.065 0 0 0-5.458-4.382zM7.54 6.942a2.7 2.7 0 0 0-3.835 0l-.48.483a2.745 2.745 0 0 0 0 3.861l.511.514a17.831 17.831 0 0 1 4.078-4.581l-.274-.277zM24.106 4.27c.004-.059.017-.115.017-.175V2.73A2.722 2.722 0 0 0 21.41 0h-4.745a2.721 2.721 0 0 0-2.71 2.73v1.342a17.455 17.455 0 0 1 10.15.198"/><path d="M18.892 10.47c5.95 0 10.79 4.852 10.79 10.816s-4.84 10.817-10.79 10.817c-5.948 0-10.789-4.853-10.789-10.817s4.84-10.816 10.79-10.816M3.787 21.286c0 8.363 6.761 15.143 15.104 15.143 8.344 0 15.105-6.78 15.105-15.143 0-8.362-6.761-15.143-15.105-15.143-8.343 0-15.104 6.78-15.104 15.143z"/></g></svg>