<svg xmlns="http://www.w3.org/2000/svg" viewBox="0 0 182.442 136.691" height="136.691" width="182.442"><path d="M20.236 85.484l-2.244 6.107c-1.852 1.832-3.703 3.667-5.555 5.5-2.024 2.006-2.46 1.992-1.984 4.83.558 3.332 2.16 6.767 5.111 9.725 3.102 3.11 9.614 7.51 14.3 5.436a32.846 32.846 0 0 1-1.749 4.84c-3.142 6.89 4.516 8.24 9.876 9.69 4.454 1.204 15.385 4.413 16.963-1.441.71-2.634.82-4.05.567-6.565 1.386-3.093 1.829-3.587 2.976-5.29 1.574-2.334 1.461-3.223 1.117-6.12a68.215 68.215 0 0 0-.242-1.808c5.304.798 10.404.788 15.602.143-1.578.92-3.16 1.725-5.248 2.799-4.954 2.546-.286 10.06 1.85 13.35 4.48 6.905 8.499 11.656 16.069 7.56 2.543-1.376 2.74-2.843 4.326-5.212.877-.481 5.395-4.324 8.082-6.494 1.018 1.221 2.967 1.446 5.923 1.66 1.488.108 7.321.071 8.868.081 4.638.03 7.422-.452 7.785-5.508.172-2.397.07-2.907-1.11-5.003l-.212-7.933c-.081-2.98-.65-4.807-1.819-7.59-1.063-2.527-1.658-4.684-2.9-7.135.171-.96.306-1.952.398-2.988l4.73 4.558c3.007 2.896 5.492 5.261 10.076 5.045 4.773-.225 10.239-3.986 11.638-8.587l1.399-4.605c7.2 1.36 15.613 1.049 21.881-2.296 9.22-4.92 13.533-14.812 14.593-25.276.858-8.465-.793-22.7-4.829-30.424-1.187-2.271-6.545-5.145-8.895-2.764-1.77 1.794-2.985 4.527-4.896 6.16-1.48 1.264-3.314 1.89-4.92 2.552-1.244-3.358-3.031-5.967-5.22-8.575-1.74-2.073-3.38-3.106-5.676-4.543-4.535-2.84-8.055-6.426-12.182-9.828-12.488-10.297-23.212-9.98-38.772-3.432C88.49 9.228 84.91 13.47 80.357 19.56c-2.752.144-4.642.677-7.55 3.243a100.26 100.26 0 0 0-6.08 5.864c-14.545 2.318-23.578 5.09-33.135 13.561-3.888 3.448-6.715 7.269-8.92 11.563-2.047 2.262-4.083 4.581-6.785 5.622-1.903.732-1.868.73-2.538-1.06 2.262-1.7 2.227-4.9 2.436-7.797 1.427.068 1.962 1.669 2.933 2.894.572-2.562.904-6.54-1.791-7.936.438-1.172.934-2.353 1.388-3.645-3.976.69-17.608 9.879-10.335 16.887.48 1.946.856 3.286 1.489 4.602 1.664 3.461 5.406 4.054 8.667 2.782-.894 4.098-1.075 8.555-.537 14.813.13 1.5.346 3.014.637 4.532" fill-rule="evenodd"/><path d="M21.1 85.801l-.902 2.455-1.728-.633.902-2.456 1.728.634zm-.902 2.455l-1.342 3.651-1.728-.633 1.342-3.651 1.728.633zm-1.342 3.651l-.216.335-.648-.651.864.316zm-.216.335l-2.944 2.915-1.296-1.302 2.944-2.916 1.296 1.303zm-2.944 2.915l-2.611 2.586-1.296-1.303 2.611-2.585 1.296 1.302zm-2.611 2.586c-.398.394-.533.524-.653.64l-1.274-1.332c.266-.256.56-.539.631-.61l1.296 1.302zm-.653.64c-1.178 1.134-1.412 1.359-1.072 3.386l-1.814.302c-.5-2.986-.152-3.323 1.612-5.02l1.274 1.331zm-1.072 3.386a16.406 16.406 0 0 0 1.668 4.918l-1.634.857a18.233 18.233 0 0 1-1.848-5.473l1.814-.302zm1.668 4.918a17.88 17.88 0 0 0 3.187 4.311l-1.302 1.296a19.724 19.724 0 0 1-3.52-4.75l1.635-.857zm3.187 4.311c1.72 1.724 4.526 3.86 7.447 4.97l-.648 1.72c-3.192-1.213-6.24-3.529-8.101-5.394l1.302-1.296zm7.447 4.97c2.031.771 4.102 1.037 5.832.271l.741 1.685c-2.232.988-4.777.693-7.221-.236l.648-1.72zm5.832.271l1.778-.787-.518 1.874-.89-.244-.37-.843zm1.26 1.087a34.775 34.775 0 0 1-.812 2.553l-1.735-.626c.295-.816.55-1.627.769-2.416l1.778.49zm-.812 2.553a32.4 32.4 0 0 1-.988 2.424l-1.678-.763c.343-.751.653-1.52.93-2.287l1.736.626zm-.988 2.424c-1.557 3.413.075 5.21 2.603 6.364l-.763 1.677c-3.46-1.578-5.683-4.056-3.518-8.804l1.678.763zm2.603 6.364c1.616.736 3.571 1.246 5.388 1.72l-.46 1.777c-1.91-.497-3.964-1.032-5.691-1.82l.763-1.677zm5.388 1.72c.48.123.945.245 1.28.335l-.468 1.778c-.492-.133-.883-.235-1.273-.336l.461-1.778zm1.28.335c2.19.593 5.979 1.68 9.384 1.895l-.116 1.842c-3.568-.226-7.474-1.347-9.736-1.959l.468-1.778zm9.384 1.895c3.077.195 5.82-.324 6.456-2.68l1.778.468c-.942 3.497-4.455 4.301-8.35 4.054l.116-1.842zm6.456-2.68c.336-1.248.53-2.212.612-3.168l1.842.15c-.088 1.04-.303 2.1-.676 3.486l-1.778-.468zm.612-3.168c.081-.96.048-1.894-.07-3.076l1.828-.173c.133 1.331.172 2.365.084 3.4l-1.842-.151zm-.07-3.076l.072-.46.842.373-.914.087zm.072-.46c1.24-2.768 1.75-3.515 2.652-4.836l1.519 1.036c-.834 1.222-1.307 1.913-2.487 4.547l-1.684-.748zm2.652-4.836c.092-.135.171-.25.403-.595l1.526 1.03-.41.601-1.519-1.036zm.403-.595c.703-1.043 1.027-1.74 1.13-2.46l1.822.251c-.149 1.032-.556 1.947-1.426 3.238l-1.526-1.029zm1.13-2.46c.108-.758 0-1.661-.164-3.042l1.828-.21c.18 1.517.3 2.508.158 3.503l-1.822-.252zM58.7 112.3a72.1 72.1 0 0 0-.109-.87l1.822-.23c.055.413.093.706.115.89l-1.828.21zm-.109-.87c-.02-.157-.066-.471-.13-.909l1.822-.266.13.944-1.822.23zm-.13-.909l-.18-1.229 1.228.185-.137.911-.91.133zm1.048-1.044a54.05 54.05 0 0 0 7.708.603l-.007 1.842a55.85 55.85 0 0 1-7.975-.623l.274-1.822zm7.708.603c2.551.016 5.09-.145 7.65-.463l.215 1.829c-2.637.327-5.25.493-7.873.476l.007-1.842zm7.65-.463l.568 1.713-.46-.799-.109-.914zm.568 1.713c-1.487.867-2.972 1.63-4.865 2.603l-.842-1.641c1.869-.96 3.334-1.714 4.786-2.56l.921 1.598zm-4.865 2.603l-.423.217-.842-1.641.423-.217.842 1.641zm-.423.217c-1.946 1-1.964 3.102-1.277 5.302l-1.756.547c-.942-3.014-.816-5.944 2.191-7.49l.842 1.641zm-1.277 5.302c.78 2.497 2.436 5.125 3.476 6.727l-1.54 1.001c-1.096-1.688-2.843-4.462-3.692-7.18l1.756-.548zm3.476 6.727c2.176 3.354 4.228 6.178 6.585 7.622l-.958 1.57c-2.665-1.634-4.864-4.64-7.168-8.19l1.54-1.002zm6.585 7.622c2.226 1.365 4.83 1.491 8.278-.374l.871 1.627c-4.12 2.23-7.312 2.03-10.107.316l.958-1.569zm8.278-.374c1.63-.882 2.177-1.84 2.914-3.13l1.605.906c-.89 1.56-1.551 2.716-3.648 3.85l-.87-1.626zm2.914-3.13a26.8 26.8 0 0 1 1.085-1.78l1.526 1.021c-.377.563-.706 1.14-1.006 1.665l-1.605-.907zm1.085-1.78l.32-.299.443.81-.763-.511zm.32-.299c.538-.295 2.836-2.193 5.071-4.04l1.174 1.418c-2.311 1.91-4.689 3.873-5.36 4.241l-.884-1.619zm5.071-4.04c1.15-.95 2.286-1.888 2.874-2.364l1.16 1.44a323.905 323.905 0 0 0-2.86 2.342l-1.174-1.418zm2.874-2.364l.706-.57.583.7-.71.59-.579-.72zm1.289.13c.367.44.948.713 1.738.902l-.424 1.792c-1.178-.282-2.082-.734-2.732-1.514l1.418-1.18zm1.738.902c.907.217 2.098.323 3.541.427l-.13 1.842c-1.512-.109-2.775-.223-3.835-.477l.424-1.792zm3.541.427c1.132.082 4.748.08 7.082.08v1.842c-2.385 0-6.079.003-7.211-.08l.13-1.842zm7.082.08c.74-.001 1.356-.001 1.724.001l-.007 1.843c-.367-.002-.98-.002-1.717-.002v-1.843zm1.724.001c2.176.014 3.9-.083 5.04-.728l.906 1.605c-1.503.851-3.49.981-5.953.966l.007-1.843zm5.04-.728c1.04-.59 1.665-1.751 1.821-3.923l1.843.13c-.207 2.882-1.156 4.49-2.758 5.398l-.907-1.605zm1.821-3.923c.08-1.116.099-1.782-.027-2.352l1.8-.396c.177.807.161 1.596.07 2.877l-1.843-.13zm-.027-2.352c-.125-.571-.42-1.163-.968-2.136l1.612-.9c.631 1.121.978 1.833 1.155 2.64l-1.799.396zm-.968-2.136l-.115-.429.92-.021-.805.45zm-.115-.429l-.107-3.967 1.843-.043c.034 1.322.07 2.645.106 3.967l-1.842.043zm-.107-3.967l-.106-3.967 1.843-.043.106 3.967-1.843.043zm-.106-3.967c-.038-1.419-.191-2.558-.472-3.666l1.785-.446c.316 1.245.488 2.51.53 4.07l-1.843.043zm-.472-3.666c-.283-1.116-.705-2.232-1.274-3.588l1.698-.713c.6 1.426 1.047 2.617 1.361 3.855l-1.785.446zm-1.274-3.588a68.504 68.504 0 0 1-1.087-2.803l1.727-.634c.323.87.652 1.758 1.058 2.724l-1.698.713zm.64-3.44v.004l-.863.316.863-.32zm-1.727.64c-.527-1.42-1.038-2.798-1.788-4.278l1.649-.828c.787 1.554 1.319 2.988 1.866 4.466l-1.727.64zm-1.788-4.278l-.082-.572.907.158-.825.414zm-.082-.572c.09-.514.166-.99.224-1.423l1.821.23a36.122 36.122 0 0 1-.231 1.51l-1.814-.317zm.224-1.423c.052-.392.105-.883.159-1.483l1.842.151c-.039.436-.1.96-.18 1.563l-1.82-.23zm.159-1.483l.171-1.926 1.387 1.336-.637.666-.921-.076zm1.558-.59l2.707 2.608-1.274 1.332-2.707-2.608 1.274-1.332zm2.707 2.608l2.024 1.95-1.274 1.332-2.024-1.95 1.274-1.332zm2.024 1.95c1.46 1.408 2.795 2.687 4.276 3.56l-.935 1.591c-1.658-.978-3.07-2.33-4.615-3.819l1.274-1.332zm4.276 3.56c1.425.841 3.031 1.328 5.118 1.23l.087 1.842c-2.497.118-4.425-.469-6.14-1.48l.935-1.592zm5.118 1.23c2.252-.106 4.685-1.073 6.707-2.565l1.094 1.483c-2.303 1.699-5.1 2.8-7.714 2.924l-.087-1.842zm6.707-2.565c1.93-1.423 3.468-3.312 4.093-5.367l1.764.533c-.746 2.454-2.535 4.673-4.763 6.317l-1.094-1.483zm4.093-5.367l.647-2.128 1.763.533-.646 2.128-1.764-.533zm.647-2.128l.752-2.478 1.764.533-.753 2.478-1.763-.533zm.752-2.478l.24-.79.81.154-.168.903-.882-.267zm1.05-.636c3.732.705 7.794.951 11.699.542l.18 1.828c-4.083.428-8.325.171-12.216-.564l.338-1.806zm11.699.542c3.43-.36 6.738-1.23 9.582-2.748l.864 1.627c-3.055 1.63-6.598 2.564-10.266 2.95l-.18-1.83zm9.582-2.748c4.166-2.223 7.294-5.507 9.547-9.409l1.598.915c-2.42 4.192-5.789 7.724-10.28 10.121l-.865-1.627zm9.547-9.409v-.004l.799.461-.8-.457zm0-.004c2.573-4.458 4.015-9.718 4.564-15.137l1.828.173c-.575 5.68-2.09 11.2-4.794 15.886l-1.598-.922zm4.564-15.137c.447-4.416.2-10.439-.725-16.263l1.814-.288c.948 5.973 1.2 12.168.74 16.724l-1.829-.173zm-.725-16.263c-.815-5.139-2.156-10.107-4.007-13.65l1.634-.85c1.942 3.718 3.343 8.887 4.187 14.212l-1.814.287zm-4.007-13.65c-.145-.277-.386-.58-.695-.886l1.288-1.317c.444.439.804.9 1.041 1.354l-1.634.85zm-.695-.886c-.79-.779-1.964-1.517-3.179-1.935l.597-1.742c1.477.508 2.905 1.408 3.87 2.36l-1.288 1.317zm-3.179-1.935c-1.127-.388-2.264-.495-3.075-.071l-.85-1.634c1.31-.684 2.958-.575 4.522-.037l-.597 1.742zm-3.075-.071c-.17.089-.329.204-.47.347l-1.317-1.288a3.73 3.73 0 0 1 .937-.693l.85 1.634zm-.47.347c-.753.764-1.414 1.73-2.077 2.697l-1.519-1.036c.716-1.046 1.43-2.09 2.279-2.95l1.317 1.29zm-2.077 2.697c-.872 1.274-1.747 2.552-2.88 3.52l-1.196-1.403c.959-.819 1.76-1.989 2.557-3.153l1.519 1.036zm-2.88 3.52c-1.388 1.186-2.997 1.832-4.49 2.43l-.685-1.712c1.359-.545 2.821-1.132 3.98-2.121l1.194 1.404zm-4.49 2.43l-.679.274-.698-1.705c.286-.118.49-.2.692-.281l.684 1.713zm-.679.274l-.88.363-.333-.899.864-.317.349.853zm-1.213-.536a23.713 23.713 0 0 0-2.173-4.396l1.562-.979a25.54 25.54 0 0 1 2.339 4.742l-1.728.633zm-2.173-4.396c-.855-1.365-1.824-2.637-2.889-3.905l1.411-1.181c1.124 1.339 2.144 2.677 3.04 4.107l-1.562.979zm-2.889-3.905a15.062 15.062 0 0 0-2.482-2.37l1.116-1.46c.966.736 1.86 1.556 2.777 2.649l-1.41 1.18zm-2.482-2.37c-.86-.655-1.837-1.269-2.977-1.982l.979-1.562c1.154.723 2.145 1.345 3.114 2.083l-1.116 1.462zm-2.977-1.982c-3.212-2.012-5.905-4.374-8.652-6.784l1.21-1.389c2.688 2.36 5.324 4.672 8.42 6.61l-.978 1.563zm-8.652-6.784a154.252 154.252 0 0 0-3.627-3.113l1.173-1.425c1.207.995 2.441 2.078 3.663 3.15l-1.209 1.388zm-3.627-3.113c-6.085-5.017-11.72-7.447-17.706-7.824L116.51.58c6.388.402 12.36 2.963 18.763 8.242l-1.173 1.425zm-17.706-7.824c-6.03-.38-12.473 1.309-20.123 4.529l-.713-1.699C103.466 1.924 110.165.181 116.509.58l-.116 1.843zM96.27 6.952c-3.605 1.517-6.274 3.302-8.589 5.443l-1.245-1.353c2.469-2.283 5.304-4.182 9.121-5.789l.713 1.699zm-8.589 5.443c-2.332 2.157-4.338 4.706-6.587 7.714l-1.475-1.101c2.303-3.082 4.366-5.7 6.817-7.966l1.245 1.353zm-6.587 7.714l-.26.349-.43.022-.047-.921.737.55zm-.69.37c-1.282.067-2.355.222-3.422.649l-.684-1.713c1.292-.516 2.541-.701 4.012-.778l.093 1.843zm-3.422.649c-1.083.433-2.2 1.158-3.567 2.365l-1.217-1.382c1.54-1.359 2.824-2.186 4.1-2.696l.684 1.713zm-3.567 2.365a91.739 91.739 0 0 0-3.088 2.856l-1.281-1.324a93.28 93.28 0 0 1 3.152-2.914l1.217 1.382zm-3.088 2.856l-.004.004-.637-.666.64.663zm-.004.004c-.998.965-1.973 1.949-2.932 2.95l-1.331-1.274c.975-1.018 1.968-2.02 2.99-3.007l1.273 1.331zm-2.932 2.95l-.521.27-.144-.907.665.637zm-.521.27c-7.202 1.148-13.038 2.407-18.25 4.426l-.663-1.72c5.33-2.064 11.283-3.35 18.625-4.52l.288 1.814zm-18.25 4.426c-5.169 2.002-9.73 4.761-14.42 8.92l-1.217-1.382c4.865-4.314 9.601-7.177 14.974-9.258l.662 1.72zM34.2 42.92a37.568 37.568 0 0 0-4.97 5.33l-1.46-1.115a39.4 39.4 0 0 1 5.213-5.597l1.217 1.381zm-4.97 5.33a39.414 39.414 0 0 0-3.738 5.959l-1.641-.835a41.289 41.289 0 0 1 3.918-6.24l1.462 1.116zm-3.738 5.959l-.137.198-.684-.616.82.418zm-.137.198c-1.048 1.157-2.093 2.33-3.215 3.34l-1.23-1.374c1.082-.975 2.079-2.093 3.077-3.197l1.368 1.23zm-3.215 3.34c-1.175 1.059-2.45 1.959-3.923 2.526l-.662-1.72c1.23-.474 2.325-1.254 3.354-2.18l1.231 1.374zm-3.923 2.526h-.003l-.328-.86.331.86zm-.003 0c-1.183.454-1.76.682-2.415.405l.713-1.699c.03.013.326-.15 1.047-.427l.655 1.721zm-2.415.405l-.004-.004.36-.846-.356.85zm-.004-.004c-.69-.293-.883-.86-1.31-2.001l1.727-.64c.243.648.238.922.303.95l-.72 1.69zm-1.31-2.001l-.24-.642.553-.416.55.738-.863.32zm.313-1.058c1.693-1.272 1.853-3.806 2.008-6.246l1.842.116c-.18 2.853-.368 5.816-2.749 7.605l-1.101-1.475zm2.008-6.246c.02-.319.04-.636.057-.878l1.843.13c-.024.333-.041.6-.058.864l-1.842-.116zm.057-.878l.066-.9.899.043-.043.922-.922-.065zm.965-.857c1.52.073 2.212 1.145 2.959 2.301l-1.548.994c-.477-.74-.92-1.425-1.498-1.452l.087-1.843zm2.959 2.301c.208.323.423.656.65.942l-1.44 1.145a13.612 13.612 0 0 1-.758-1.093l1.548-.994zm.83 1.712l-.421 1.886-1.198-1.511.72-.573.899.198zm-1.8-.396c.312-1.391.55-3.216.213-4.71l1.792-.402c.412 1.824.148 3.928-.205 5.508l-1.8-.396zm.213-4.71c-.214-.949-.672-1.765-1.525-2.207l.842-1.64c1.41.73 2.149 1.995 2.475 3.445l-1.792.403zm-1.525-2.207l-.728-.377.285-.763.864.32-.42.82zm-.443-1.14c.136-.364.334-.87.538-1.389l1.713.67c-.16.406-.32.815-.523 1.36l-1.728-.641zm.538-1.389c.272-.693.55-1.404.844-2.238l1.742.604c-.263.746-.572 1.535-.873 2.304l-1.713-.67zm1.56-2.843l1.545-.268-.52 1.477-.87-.302-.155-.907zm.31 1.814c-1.784.31-5.713 2.514-8.565 5.474l-1.332-1.274c3.111-3.23 7.53-5.657 9.587-6.014l.31 1.814zm-8.565 5.474c-1.034 1.073-1.91 2.232-2.464 3.413l-1.67-.77c.653-1.392 1.647-2.717 2.802-3.917l1.332 1.274zM9.44 51.662c-.528 1.126-.769 2.279-.574 3.398l-1.815.31c-.263-1.517.041-3.031.72-4.478l1.67.77zm-.574 3.398c.176 1.016.722 2.038 1.75 3.029L9.343 59.42c-1.333-1.284-2.049-2.654-2.29-4.05l1.814-.31zm1.75 3.029l.256.446-.893.22.637-.666zm.256.446c.233.952.443 1.756.671 2.483l-1.756.547a43.163 43.163 0 0 1-.7-2.59l1.785-.44zm.671 2.483c.219.696.457 1.321.755 1.943l-1.662.791a16.045 16.045 0 0 1-.849-2.187l1.756-.547zm.755 1.943c.663 1.378 1.711 2.217 2.92 2.605l-.562 1.756c-1.67-.536-3.114-1.686-4.02-3.57l1.662-.791zm2.92 2.605c1.41.453 3.05.314 4.582-.283l.67 1.713c-1.916.746-3.994.91-5.814.326l.562-1.756zm4.582-.283l1.6-.624-.366 1.674-.9-.194-.334-.856zm1.234 1.05c-.434 1.991-.696 4.078-.784 6.435l-1.842-.065c.092-2.46.368-4.653.827-6.758l1.8.388zm-.784 6.435c-.087 2.357.002 5.002.269 8.108l-1.843.151c-.27-3.15-.36-5.864-.268-8.324l1.842.065zm.269 8.108c.068.791.15 1.52.243 2.186l-1.821.244a43.171 43.171 0 0 1-.265-2.279l1.843-.15zm.243 2.186c.103.734.23 1.485.376 2.249l-1.807.346a47.255 47.255 0 0 1-.39-2.35l1.821-.245zm.376 2.249l-.04.49-.864-.317"/><path d="M67.232 30.133l-12.13 1.971-11.069 4.852-9.4 5.914-8.946 10.916-5.054 5.353-4.887 1.801-1.292-3.159 2.26-3.262.508-4.6 1.513.06 1.654 1.51-.446-4.686-1.833-1.23.055-1.786-4.343 2.457-3.932 4.64-.82 4.147 1.681 3.32 1.57 5.642 3.19 1.51 3.355-.164 3.182-1.849-2.123 10.765 2.123 11.979-2.337 5.53-7.652 8.246 1.36 4.926 3.625 5.709 6.836 4.81 3.626.497 4.032.136-2.515 10.326 9.249 3.79 11.523 1.516 3.942-2.577.303-6.975 4.398-7.278.303-5.761 10.614.758 9.855-.91-9.855 5.913 1.667 7.127 6.217 9.703 6.065 2.578 4.852-1.97 1.97-3.943 10.16-7.733 1.97 1.668 15.921.606 3.184-2.577.303-4.549-1.06-1.97-.76-12.282-5.306-10.614.91-4.7 3.184 1.667 8.946 8.34 4.397.303 4.852-1.971 4.852-3.639 2.426-7.884 14.252.91L167 80.622l6.974-6.52 5.004-9.4 1.213-11.068-1.062-12.888-2.729-11.523-2.73-3.64-3.79-1.213-6.67 7.278-6.066 2.123-5.307-8.794-5.306-4.852-2.881-1.82-11.524-9.552-9.249-5.003-9.249-.759-10.765 1.82-9.4 3.487-6.52 5.307-5.155 6.217-5.307 1.516-9.25 8.794z" fill="#ff0" fill-rule="evenodd" stroke="#1f1917" stroke-width=".27" stroke-miterlimit="10"/><path d="M32.052 57.498c-10.39 12.119-8.082 26.817-5.203 41.216l-4.61-11.648L20.54 76.39l.486-10.92 4.367-10.435 6.553-9.707 10.192-8.493L53.3 32.223l13.104-1.699L54.27 44.356c-9.742 3.16-15.488 5.288-22.219 13.142" fill="#ffc" fill-rule="evenodd"/><path d="M80.965 20.575c-7.223 7.047-11.169 12.362-15.766 20.614-3.288 5.902-6.976 11.587-10.433 17.407-1.749 2.946-1.914 5.417-2.436 8.814l-5.096-6.067 2.427-7.28 8.25-14.803 17.473-17.23 5.58-1.455m35.673-17.472c-5.785 2.169-15.393 2.883-16.06 9.523-.474 4.716.356 7.085 3.199 12.074-7.02-7.264-8.757-6.14-22.326-3.883l5.824-8.25 10.192-6.31 13.105-2.912 6.066-.242" fill="#ffc" fill-rule="evenodd"/><path d="M132.6 92.92c1.927 1.189 1.886 2.05 1.563 2.865l4.558-1.823 2.953-3.965 2.192-5.649-2.8-2.106c-4.081.52-8.161 1.042-12.242 1.563l-.911 2.474.26 3.516 1.172 2.083 1.823.912 1.433.13m-1.14-20.933c-6.135 1.77-6.087 2.259-7.9 8.346 2.393-3.838 4.164-5.775 7.9-8.346m40.799-45.553c-1.091.503-2.153.746-2.835 1.744-1.468 2.148-2.726 3.954-5.153 5.462-1.223.76-2.487 1.251-3.784 1.655-1.075.335-1.72.036-2.636.694l1.629.285h3.592l4.427-2.735 2.605-2.734 2.154-4.371M74.522 40.05c-2.414 6.605-4.523 12.267-8.18 18.248 4.686-5.049 7.526-9.34 10.21-15.048 1.042-2.217 1.24-4.818 4.143-3.85.13 2.213.598 4.427.729 6.64 1.569-11.246 5.993-15.95 16.277-20.314l-8.724 1.042-8.204 1.823-4.037 5.86-2.214 5.6m19.924-.261c2.218 10.439 5.41 20.457 6.798 31.061.901 6.89 1 10.201-2.468 16.146-3.788-.245-6.14.182-9.806 1.383-14.59 4.783-22.957 11.815-32.788-2.354l9.415 4.437 6.711-1.32 11.85-6.9 9.246-1.824L96.4 67.918l-2.214-16.539-.26-7.813c.174-1.259.348-2.517.52-3.776m25.133 64.59c-1.226 8.48 2.822 13.04 1.146 15.382-.475.663-1.118 1.82-1.836 2.137-2.564 1.133-6.09-.212-6.342.452h-8.465l-3.385-1.433 5.209-6.12 5.078-11.07c1.086-3.732 2.17-7.465 3.255-11.198h1.693l3.647 11.85" fill="#cc0" fill-rule="evenodd"/><path d="M105.352 79.725c.688 3.85 1.882 4.766 3.693 8.493-1.206 6.081-3.143 13.313-5.473 18.678-.983 2.263-1.777 3.51-3.51 5.26-2.925 2.954-5.883 5.528-9.202 8.088-2.388 1.841-4.055.918-7.002.5-1.253 2.273-1.6 3.535-3.906 4.688-3.548 1.774-6.722-2.049-9.507-4.297l6.03 9.42c1.39 1.301 2.779 2.604 4.168 3.906l3.516.521 4.687-2.865 2.475-4.688 5.208-3.907 6.381-5.469 4.037-5.73 3.646-6.771 4.689-14.064.39-5.34-5.86-2.604c-1.432-1.346-3.027-2.474-4.46-3.82m-46.717 27.13c6.573 0 13.513-.365 19.533-3.125 1.704-2.556 3.385-4.643 5.47-6.902-1.897 3.583-2.492 5.608-2.995 9.636l-1.954 2.865-14.845.391c-1.606-.174-3.213-.348-4.819-.52l-.52-.522.13-1.823m-.912-4.558l-.51-4.623c-1.123 6.759-.853 11.288-3.963 17.343-2.324 2.692-5.185 5.142-8.462 6.453.277 1.66.36 2.697.199 3.914-.577 4.378-9.335 2.444-12.937 2.27l17.34 4.464 3.906-1.563 1.302-7.553 3.646-6.77.651-4.168c-.39-3.256-.78-6.511-1.172-9.767m-9.766-38.155c-.182 3.287-.394 4.657 1.055 7.56 1.842 3.69 4.105 7.155 6.107 10.801l.65-7.292c-2.603-3.69-5.208-7.38-7.812-11.069M21.225 88.967l-1.691 3.6c1.551 5.226 2.93 8.536 5.885 13.102-.515 1.85-.9 2.66-2.084 4.167-2.6-.4-4.909-.516-7.543-.508l8.725 6.772 4.297-.782 4.298-4.297-6.12-9.506a268946.2 268946.2 0 0 1-5.767-12.548m151.053-64.263c1.771 7.97 4.056 15.323 3.844 23.484-.26 10.013-2.212 22.662-11.49 28.7-10.389 6.762-22.585 3.564-33.985.666l13.934 5.73 13.022.651 8.856-2.604 6.901-5.73 5.21-10.939 1.952-12.631-1.562-12.371-2.865-12.241-3.817-2.715M17.229 48.456c-4.717 3.07-6.57 4.417-6.053 10.107l1.41 5.112 1.998 1.352 2.469.822 4.466-1.057 2.291-7.11-6.346 3.114h-1.47l-1.645-2.527 1.998-2.938 1.058-5.582 1.352.41 1.645 1.293-.235-2.938-1.117-1.88-1.116-.94-.705 2.762M123.05 3.622c4.186 3.887 9.324 7.266 12.672 12.017 1.296 1.839 2.736 2.78-.022 5.376 2.914-.832 3.996-.741 6.329-.459 4.242.514 8.219 6.545 8.473 10.867-.05.404-1.179 1.322-4.46 2.227-.064.126-1.85-.244-1.806-.123.34.932.796 1.075 1.492 1.512.15 1.037.248 2.637.954 3.771 2.065-.036 4.082.189 6.103.59.68 1.127.578 2.256.521 3.385l2.344-.39-.65-5.34c.693-1.172 1.388-2.344 2.083-3.516-1-2.257-1.997-4.514-2.996-6.771l-5.73-5.47-.551-.027-6.443-3.954-10.51-8.6-7.803-5.095m7.052 32.085c-.22.386-.554 1.004-.982 1.431 1.744 1.65 2.604 2.754 3.226 5.086l-5.913 2.936-5.004 4.797c-2.195-1.182-2.742-2.09-3.804-4.342-1.237.327-2.41.643-3.43.268.647.005 1.045-.157 1.693-.558l3.184-3.308 5.624-4.259 3.68-1.199c.469-.193 1.257-.659 1.726-.852" fill="#cc0" fill-rule="evenodd"/><path d="M135.543 41.59c-6.271 3.376-12.278 6.772-15.484 13.184 0-8.14 8.173-11.722 15.484-13.185m-16.729-16.011c-4.656 3.175-7.95 9.582-7.535 15.826-1.517-5.407-.98-10.516 3.678-14.25l2.357-1.146 1.5-.43" fill="#cc0" fill-rule="evenodd"/><path d="M127.714 73.78c.963-.524 2.71-1.244 3.672-1.768-.99.167-2.765.531-3.755.698-2.644.446-2.955 1.082-3.365 3.686-.194 1.226-.46 2.747-.654 3.973.519-1.386 1.142-2.998 1.746-4.32.64-1.399 1-1.53 2.356-2.27zM78.65 6.726c2.079-3.117 3.275-4.131 6.473-6.106-4.342 1.046-5.17 1.85-6.473 6.106zm-.683 6.867C81.602 6.283 84.356 3.591 91.969 0c-8.612 2.11-11.143 3.612-14.003 13.593zM.09 51.645c.798-3.661 1.542-5.042 3.799-8.047C.229 46.156-.25 47.207.09 51.645zm81.512 61.267l-.332-2.665c-.2-1.61-.192-2.918-.063-4.538l.37-4.704c-.457 1.594-1.37 3.188-1.826 4.782-.183.637-.334 1.153-.42 1.63-6.815 1.392-13.58 1.48-20.395.264-.435-2.524-.964-5.153-1.408-7.038-.135 2.111-.048 7.947-.06 11.215-.007 2.532-.114 3.399-1.42 5.552-1.222 2.017-1.74 2.474-3.45 5.881.141 2.15.144 3.57-.427 5.611-.95 3.391-10.53.764-13.058.072-3.113-.852-9.548-2.119-7.93-6.268 1.425-3.652 2.327-7.502 3.023-12.612-5.702-8.215-11.006-19.473-12.023-29.448-.79-7.745-.316-12.512 1.36-17.25 2.655-7.506 6.37-14.003 12.332-19.235 8.04-7.056 15.558-9.89 27.327-11.682-2.83 3.169-5.63 6.52-8.682 10.111-3.09 3.638-4.926 7.31-6.888 11.289-2.71 5.494-2.652 7.584.941 12.408 3.096 4.156 4.768 6.028 6.12 10.094-1.117 2.302-1.523 4.246-1.898 7.389 3.79 4.143 6.608 6.983 10.288 7.858 3.61.858 6.626.692 9.856-.96 7.174-3.667 13.812-8.403 21.904-8.599 3.744-9.204 3.366-16.895 1.568-25.8-1.227-6.082-1.72-11.84-2.102-18.04-1.517 6.385-1.802 12-.676 18.36 1.357 7.665 2.413 16.134-1.364 22.87-7.317.56-13.588 5.012-20.184 8.428-2.65 1.374-5.41 1.507-8.345.702-2.724-.748-4.562-2.55-7.496-5.934-.046-3.398.72-4.966 2.28-8.043 2.508-4.941 5.275-9.54 8.311-14.403-3.718 4.488-7.24 8.237-10.167 12.75-1.118-3.188-2.718-4.806-5.367-8.394-2.588-3.505-2.86-5.04-.924-9.095 1.945-4.076 3.595-7.659 6.907-11.235 5.722-6.179 10.964-13.056 17.221-19.141 3.398-3.304 4.777-3.19 9.284-3.873 4.073-.618 8.05-1.397 12.204-2.362-4.018.374-7.901.512-11.812.61l-.121.001c3.848-4.914 6.081-7.653 12.33-10.368 15.388-6.683 25.165-7.406 37.253 2.755 3.132 2.633 5.868 5.19 9.045 7.461-1.152.099-2.144.305-3.457.821 1.598-.304 3.443-.002 5.1.3.466.302.944.597 1.435.886 2.242 1.32 3.514 2.05 5.03 4.164a45.034 45.034 0 0 1 4.117 6.923c-.771-.275-1.418-.508-1.995-.68a4.297 4.297 0 0 0-4.047.25l-.093.045c-1.24.604-3.162 1.292-4.448 1.5.655.227 2.106.312 2.79.041a2.05 2.05 0 0 1 .28-.087 4.284 4.284 0 0 0-.571 1.766 4.289 4.289 0 0 0 .459 2.386l.004.007c.116.273.277.526.455.707-.589.216-1.188.464-1.806.732 2.867-.436 5.452-.512 8.251-.143.185.883.37 1.817.543 2.768l-1.04.081-.084.007c-1.324-1.058-2.8-.88-4.815-.42-6.129 1.398-4.688 4.837-7.509 10.02 2.928-3.58 2.711-7.324 7.483-8.454 1.111-.264 1.868-.593 2.62-.48-1.354.682-2.526 1.81-2.99 3.122-1.31 3.698-.496 6.814-1.935 10.268 1.782-3.087 1.89-6.1 3.483-9.35.572-1.167 2.696-3.035 4-3.063l1.074-.023c.314 2.055.505 4.096.383 5.79-.222 3.088-1.025 7.673-1.505 9.427 1.614-2.075 2.35-6.47 3.058-9.563.739-3.222.553-7.088-.094-10.549-.887-4.748 4.004-3.976 6.843-6.214 2.087-1.645 3.524-4.272 5.437-6.133 1.898-1.846 4.886.866 5.632 2.67 3.238 7.832 4.713 20.153 3.858 28.047-.96 8.859-5.24 18.53-13.053 22.891-9.96 5.56-21.704 2.163-31.6-1.171-2.112-.712-3.58-1.749-5.437-2.918.505 2.276.735 4.685.062 6.958-1.067 3.607-2.791 9.509 2.106 10.597 1.864.414 2.709.354 5.34-1.003-2.13.481-3.203.363-4.667.093-1.327-.245-2.03-1.088-2.4-2.081.463.335 1.219.517 2.51.828 3.63.875 7.09-.873 7.767-3.39.394-1.471.327-2.244 1.163-4.248.75.232 1.528.443 2.324.636l-1.348 4.4c-1.167 3.805-5.713 6.875-9.727 6.804-3.71-.066-6.063-2.39-8.625-4.669-1.765-1.57-3.463-3.073-5.146-4.56-4.618-1.457-8.32-3.16-12.606-6.333 3.05 3.584 5.12 5.569 9.373 7.352-.619 6.31-2.812 10.912-4.682 16.95-.845 2.732-7.526 13.674-9.378 14.74-1.32.761-9.589 7.726-11.144 8.645-1.159 1.538-2.176 3.664-3.917 4.585-5.307 2.806-8.718-2.568-11.574-7.106-1.3-2.068-4.911-8.023-1.764-9.69 2.977-1.578 4.644-2.704 7.68-4.697.446.813 1.212 1.598 1.711 2.41zm18.45 9.622c-2.687 2.17-7.205 6.013-8.082 6.494-1.587 2.37-1.783 3.836-4.326 5.212-7.57 4.096-11.588-.654-16.07-7.56-2.135-3.29-6.803-10.804-1.85-13.35 2.088-1.074 3.67-1.878 5.249-2.797-5.198.645-10.299.653-15.603-.145.094.64.176 1.249.242 1.807.345 2.898.458 3.787-1.116 6.122-1.148 1.703-1.59 2.196-2.976 5.29.252 2.514.143 3.93-.567 6.564-1.578 5.854-12.51 2.645-16.963 1.44-5.36-1.449-13.018-2.799-9.876-9.69a32.76 32.76 0 0 0 1.75-4.84c-4.687 2.075-11.2-2.325-14.3-5.435-2.951-2.958-4.554-6.393-5.112-9.726-.476-2.837-.04-2.823 1.984-4.828 1.852-1.834 3.703-3.669 5.555-5.501l2.244-6.103a44.258 44.258 0 0 1-.637-4.536c-.538-6.258-.357-10.714.537-14.81-3.26 1.272-7.003.676-8.667-2.785-.633-1.316-1.01-2.656-1.488-4.601-7.274-7.009 6.358-16.197 10.334-16.888-.454 1.292-.953 2.473-1.39 3.645 2.696 1.396 2.365 5.374 1.793 7.935-.97-1.224-1.507-2.825-2.933-2.893-.21 2.896-.173 6.097-2.435 7.797.67 1.79.634 1.792 2.537 1.06 2.703-1.04 4.738-3.359 6.786-5.621 2.205-4.295 5.031-8.116 8.92-11.564 9.555-8.471 18.587-11.243 33.13-13.56 1.936-2.02 3.936-3.97 6.083-5.865 2.91-2.567 4.798-3.1 7.55-3.244 4.553-6.09 8.135-10.33 15.558-13.455 15.559-6.549 26.283-6.865 38.771 3.432 4.127 3.402 7.647 6.988 12.182 9.828 2.296 1.437 3.936 2.47 5.676 4.543 2.188 2.608 3.976 5.215 5.22 8.572 1.607-.661 3.44-1.285 4.92-2.55 1.91-1.632 3.126-4.365 4.896-6.16 2.35-2.38 7.708.494 8.895 2.765 4.036 7.724 5.687 21.959 4.83 30.424-1.06 10.464-5.375 20.356-14.594 25.276-6.268 3.345-14.682 3.656-21.882 2.295l-1.398 4.606c-1.4 4.6-6.865 8.361-11.638 8.587-4.584.216-7.069-2.15-10.075-5.045l-4.732-4.557a34.46 34.46 0 0 1-.398 2.988c1.242 2.452 1.838 4.607 2.9 7.134 1.17 2.784 1.74 4.61 1.82 7.59.07 2.644.14 5.29.212 7.933 1.18 2.096 1.282 2.606 1.11 5.004-.363 5.054-3.146 5.536-7.785 5.507-1.546-.01-7.38.026-8.867-.08-2.956-.215-4.905-.44-5.924-1.661zm15.643-27.571c-.933 3.332-2.188 6.478-3.333 10.084-1.083 3.414-6.641 13.327-9.913 15.729.637.474 1.806.66 3.888.84 1.473.126 7.28.153 8.738.179 3.21.056 4.428-.186 4.753-3.841.159-1.79.019-2.124-.876-3.693l-.238-8.394c-.074-2.652-.584-4.18-1.626-6.652-.625-1.48-.963-2.86-1.393-4.252zm-97.78-45.786c.721-.082 1.167.297 1.724.854-.103-1.331-.349-2.318-1.283-2.862-.066.216-.127.433-.185.652-.114.429-.194.884-.256 1.356zm4.528 9.616a71.71 71.71 0 0 0-1.453 4.155c-.075.236-.147.474-.217.71-2.741 1.163-6.345 1.902-7.725-.979-.67-1.398-1.048-2.77-1.537-4.537-4.514-4.677 2.234-10.85 5.91-13.065-.532 1.143-.91 2.01-1.168 2.9-1.118 3.862.506 7.31-3 10.11 1.648 3.324 1.572 4.65 5.405 3.113 1.478-.592 2.698-1.424 3.785-2.407zm-1.056 31.471c2.078 7.186 5.616 14.247 9.54 20.183l-.002.103c-.246 1.02-.53 2.015-1.126 2.814-2.804 3.75-9.936-1.756-12-3.863-2.257-2.305-3.768-5.034-4.127-7.593-.262-1.867-.008-1.912 1.294-3.232l5.267-5.332 1.154-3.08zm132.769-57.676c.4.396.723.867.945 1.387.121-.11.251-.216.387-.316a50.28 50.28 0 0 0-.503-1.095c-.284.006-.56.014-.83.024zm-34.345 12.926a5.606 5.606 0 0 1-.547-2.375c-1.345 1.075-2.809 2.094-4.327 2.683 2.096-1.872 4.944-6.287 7.007-7.68 2.341-1.582 5.52-1.274 8.249-2.537-.932.847-2.126 1.529-3.343 2.178a5.629 5.629 0 0 1 3.67 4.672c1.835-.603 3.636-.888 5.157-.866-5.442 1.527-11.23 5.1-15.22 9.83a12.675 12.675 0 0 1 1.829-3.34 5.611 5.611 0 0 1-2.475-2.565zM94.58 25.829a70.571 70.571 0 0 1-8.675 2.788c-2.672 3.513-4.3 5.333-4.916 10.041-.723-4.632-.874-5.491 1.188-8.949-.598.304-1.153.721-1.95 1.402-2.88 2.463-6.634 12.14-8.135 15.6.953-4.164 3.934-14.574 7.003-17.608 2.019-1.996 2.476-1.95 5.323-2.219a565.95 565.95 0 0 0 10.162-1.055zm62.718 10.098c2.437.23 3.831.607 6.014-.473 4.068-2.013 7.062-5.3 9.003-9.23-1.188 4.689-3.577 8.674-8.534 10.442-2.434.867-4.004-.028-6.483-.74zm-46.781.458c.918-4.067 2.549-7.986 8.865-11.017-8.372 2.096-9.941 5.612-8.865 11.017zM1.96 58.288c.718-8.133 2.3-11.644 8.079-17.765C2.79 45.63.982 47.95 1.96 58.288" fill-rule="evenodd"/><path d="M120.904 46.823a2.356 2.356 0 0 1 1.114-3.138 2.365 2.365 0 0 1 3.275 1.45 14.932 14.932 0 0 0-3.008 2.946c-.58-.233-1.093-.657-1.38-1.258m26.209-10.139c.094-.97.92-1.684 1.89-1.59a1.77 1.77 0 0 1 1.59 1.93c-.02.205-.075.399-.159.577-.887.15-1.774.411-2.688.747-.382-.39-.687-1.105-.633-1.664" fill="#ffc" fill-rule="evenodd"/></svg>