<svg xmlns="http://www.w3.org/2000/svg" viewBox="0 0 255.9999 256.00004"><defs><linearGradient id="a" y2="1395.6" gradientUnits="userSpaceOnUse" x2="-4570.1" gradientTransform="matrix(.05127 -.0549 .10995 .0256 381.527 -279.783)" y1="697.55" x1="-5167.1"><stop stop-color="#f69923" offset="0"/><stop stop-color="#f79a23" offset=".312"/><stop stop-color="#e97826" offset=".838"/></linearGradient><linearGradient id="b" y2="620.5" gradientUnits="userSpaceOnUse" x2="-5326.2" gradientTransform="matrix(.05127 -.0549 .10995 .0256 381.527 -279.783)" y1="620.5" x1="-9585.3"><stop stop-color="#9e2064" offset=".323"/><stop stop-color="#c92037" offset=".63"/><stop stop-color="#cd2335" offset=".751"/><stop stop-color="#e97826" offset="1"/></linearGradient><linearGradient id="c" y2="1047.7" gradientUnits="userSpaceOnUse" x2="-6533.2" gradientTransform="matrix(.05127 -.0549 .10995 .0256 381.527 -279.783)" y1="1047.7" x1="-9071.2"><stop stop-color="#282662" offset="0"/><stop stop-color="#662e8d" offset=".095"/><stop stop-color="#9f2064" offset=".788"/><stop stop-color="#cd2032" offset=".949"/></linearGradient><linearGradient id="d" y2="580.82" gradientUnits="userSpaceOnUse" x2="-5087" gradientTransform="matrix(.05127 -.0549 .10995 .0256 381.527 -279.783)" y1="580.82" x1="-9346.1"><stop stop-color="#9e2064" offset=".323"/><stop stop-color="#c92037" offset=".63"/><stop stop-color="#cd2335" offset=".751"/><stop stop-color="#e97826" offset="1"/></linearGradient><linearGradient id="e" y2="638.44" gradientUnits="userSpaceOnUse" x2="-6797.2" gradientTransform="matrix(.05127 -.0549 .10995 .0256 381.527 -279.783)" y1="638.44" x1="-9035.5"><stop stop-color="#282662" offset="0"/><stop stop-color="#662e8d" offset=".095"/><stop stop-color="#9f2064" offset=".788"/><stop stop-color="#cd2032" offset=".949"/></linearGradient><linearGradient id="f" y2="1021.6" gradientUnits="userSpaceOnUse" x2="-5087" gradientTransform="matrix(.05127 -.0549 .10995 .0256 381.527 -279.783)" y1="1021.6" x1="-9346.1"><stop stop-color="#9e2064" offset=".323"/><stop stop-color="#c92037" offset=".63"/><stop stop-color="#cd2335" offset=".751"/><stop stop-color="#e97826" offset="1"/></linearGradient><linearGradient id="g" y2="999.73" gradientUnits="userSpaceOnUse" x2="-5351.2" gradientTransform="matrix(.05127 -.0549 .10995 .0256 381.527 -279.783)" y1="999.73" x1="-9610.3"><stop stop-color="#9e2064" offset=".323"/><stop stop-color="#c92037" offset=".63"/><stop stop-color="#cd2335" offset=".751"/><stop stop-color="#e97826" offset="1"/></linearGradient><linearGradient id="h" y2="1137.7" gradientUnits="userSpaceOnUse" x2="-5087" gradientTransform="matrix(.05127 -.0549 .10995 .0256 381.527 -279.783)" y1="1137.7" x1="-9346.1"><stop stop-color="#9e2064" offset=".323"/><stop stop-color="#c92037" offset=".63"/><stop stop-color="#cd2335" offset=".751"/><stop stop-color="#e97826" offset="1"/></linearGradient><linearGradient id="i" y2="1134.7" gradientUnits="userSpaceOnUse" x2="-6012" gradientTransform="matrix(.05127 -.0549 .10995 .0256 381.527 -279.783)" y1="1134.7" x1="-6953.4"><stop stop-color="#9e2064" offset=".323"/><stop stop-color="#c92037" offset=".63"/><stop stop-color="#cd2335" offset=".751"/><stop stop-color="#e97826" offset="1"/></linearGradient></defs><path fill="url(#a)" d="M218.24 1.218c-8.043 2.369-21.401 9.08-37.354 18.801l14.655 13.81c10.288-7.347 20.734-13.955 31.276-19.6.813-.448 1.237-.66 1.237-.66-.412.218-.824.442-1.237.66-3.41 1.878-13.758 7.904-29.372 19.872 15.032-.375 38.131-1.908 56.972-3.519 5.605-15.675-5.496-22.853-5.496-22.853S234.811-3.67 218.24 1.218z"/><path fill="none" d="M193.43 79.994c.11-.012.218-.018.328-.03l-2.111.115c-.134.03-.243.061-.376.085.728-.054 1.443-.115 2.159-.17zm-14.96 24.736zM76.807 160.22c.158-.206.315-.412.461-.618a918.264 918.264 0 0 1 9.584-12.41 869.74 869.74 0 0 1 10.531-13.13 820.043 820.043 0 0 1 10.81-12.963c3.725-4.379 7.4-8.594 11.004-12.653a743.041 743.041 0 0 1 11.513-12.659 960.988 960.988 0 0 1 5.545-5.893 528.173 528.173 0 0 1 5.022-5.209c.546-.57 1.104-1.126 1.65-1.69.085-.09.182-.181.267-.272l-1.795.097-1.432-1.405c-.133.139-.279.272-.424.411a573.738 573.738 0 0 0-7.644 7.723 699.574 699.574 0 0 0-16.171 17.22 725.286 725.286 0 0 0-11.513 12.973 874.574 874.574 0 0 0-10.87 12.774c-3.542 4.246-7 8.48-10.385 12.683a873.006 873.006 0 0 0-10.288 13.04c-.752.97-1.504 1.939-2.244 2.908a1086.89 1086.89 0 0 0-7.801 10.272l2.256 2.222 2.014-.109a986.628 986.628 0 0 1 9.912-13.313zm97.073-55.09c.012 0 .012-.01.024-.01l-.024.01z"/><path fill="#be202e" d="M169.02 117.19c-1.868.17-3.797.333-5.775.503-.012 0-.024.01-.036.01a225.73 225.73 0 0 0 2.948-.23c.97-.085 1.917-.176 2.863-.28z"/><path opacity=".35" fill="#be202e" d="M169.02 117.19c-1.868.17-3.797.333-5.775.503-.012 0-.024.01-.036.01a225.73 225.73 0 0 0 2.948-.23c.97-.085 1.917-.176 2.863-.28z"/><path fill="#be202e" d="M173.92 105.12l-.012.01c-.012 0-.012.01-.024.01.315-.018.619-.048.922-.067 1.25-.091 2.475-.2 3.664-.327-1.492.121-3.009.254-4.55.382z"/><path opacity=".35" fill="#be202e" d="M173.92 105.12l-.012.01c-.012 0-.012.01-.024.01.315-.018.619-.048.922-.067 1.25-.091 2.475-.2 3.664-.327-1.492.121-3.009.254-4.55.382z"/><path fill="url(#b)" d="M152.34 69.509a497.948 497.948 0 0 1 13.527-12.174 423.274 423.274 0 0 1 14.364-11.932c.279-.224.57-.454.85-.684 4.78-3.78 9.608-7.414 14.472-10.89l-14.655-13.81c-1.104.672-2.208 1.356-3.336 2.053a509.605 509.605 0 0 0-13.115 8.455 591.174 591.174 0 0 0-15.59 10.775 593.632 593.632 0 0 0-27.491 20.92l-.473.382 19.07 18.806a618.132 618.132 0 0 1 12.376-11.902z"/><path fill="url(#c)" d="M65.476 175.47a925.086 925.086 0 0 0-7.607 10.593c-.036.054-.073.103-.109.158-.364.508-.716 1.017-1.08 1.526-1.71 2.429-3.203 4.615-6.612 9.588 5.618 1.278 10.13 4.645 14.401 8.467-.448-3.955-3.736-7.674-9.96-10.55 27.697.623 51.561-2.872 63.9-12.98a27.16 27.16 0 0 0 3.02-2.86c-5.605 3.55-12.557 5.058-25.647 4.688-.024.01-.061.012-.085.018.024-.01.061-.012.085-.018 19.266-4.306 28.935-8.437 37.476-15.288 2.026-1.623 3.991-3.397 6.005-5.366-16.85 8.637-36.372 11.096-56.935 9.23l-15.42.843c-.485.648-.958 1.296-1.431 1.95z"/><path fill="url(#d)" d="M72.67 158.23c3.336-4.3 6.77-8.65 10.288-13.04a888.074 888.074 0 0 1 10.385-12.683c3.543-4.252 7.17-8.51 10.87-12.774a779.082 779.082 0 0 1 11.513-12.974 722.85 722.85 0 0 1 11.816-12.695c1.444-1.514 2.9-3.022 4.355-4.524a573.73 573.73 0 0 1 7.644-7.723c.133-.14.279-.273.424-.412l-19.07-18.807c-.316.255-.62.509-.935.763a531.159 531.159 0 0 0-13.212 11.114A464.96 464.96 0 0 0 93.84 86.141a410.022 410.022 0 0 0-10.397 10.085c-.68.69-1.347 1.37-2.014 2.054a259.94 259.94 0 0 0-11.307 12.362c-3.846 4.494-7.23 8.788-10.191 12.859a185.273 185.273 0 0 0-5.35 7.746 164.396 164.396 0 0 0-3.81 6.36c-2.85 4.985-5.301 9.958-7.315 14.912l19.168 18.891a1075.417 1075.417 0 0 1 10.045-13.18z"/><path fill="url(#e)" d="M43.202 153.19c-2.402 6.045-4.113 12.065-4.974 18.049-.024.212-.073.418-.097.63-5.981-4.785-21.995-9.455-21.96-9.412 11.466 8.298 20.164 16.535 21.462 24.62-6.139.63-14.546-.278-24.264-2.065 10.13 4.646 17.737 5.93 20.697 6.275-9.305.29-19 3.483-28.765 7.16 14.279-2.908 25.817-4.059 34.079-3.126-13.102 18.522-26.241 38.97-39.38 60.678 4.028-.594 6.43-1.944 7.776-3.773 2.342-3.931 17.882-29.721 42.231-63.621.692-.963 1.396-1.933 2.1-2.908.193-.272.4-.545.594-.811a976.684 976.684 0 0 1 7.995-10.884c.63-.842 1.261-1.684 1.892-2.532.012-.018.024-.036.036-.048L43.48 152.537c-.085.212-.194.43-.279.654z"/><path fill="url(#f)" d="M142.93 82.998c-.546.557-1.092 1.12-1.65 1.69-1.65 1.702-3.324 3.434-5.022 5.209a609.995 609.995 0 0 0-5.545 5.893c-.946 1.012-1.88 2.03-2.839 3.065a743.041 743.041 0 0 0-8.674 9.594 787.397 787.397 0 0 0-11.004 12.653 823.683 823.683 0 0 0-10.81 12.962 909.564 909.564 0 0 0-10.531 13.131 924.597 924.597 0 0 0-9.584 12.41c-.158.206-.316.412-.461.618a923.685 923.685 0 0 0-9.682 13.004c-.073.103-.145.206-.218.303l15.42-.842c-.303-.03-.619-.048-.922-.08 18.441-1.144 42.947-8.025 58.791-16.516a105.196 105.196 0 0 0 20.054-13.931c4.562-4.022 8.844-8.48 12.92-13.416 3.567-4.313 6.988-8.983 10.288-14.046-4.234 1.114-9.087 1.932-14.437 2.501a146.53 146.53 0 0 1-5.811.509c.012 0 .024-.01.036-.01 17.19-3.301 28.037-9.679 35.923-17.486-4.526 1.538-11.877 3.555-20.685 4.524a99.203 99.203 0 0 1-3.664.327c-.316.024-.619.05-.922.067.012 0 .012-.01.024-.01l.012-.01c5.969-1.247 11.004-2.64 15.37-4.288a56.377 56.377 0 0 0 2.718-1.096 55.546 55.546 0 0 0 3.81-1.817 44.522 44.522 0 0 0 2.256-1.26 43.56 43.56 0 0 0 4.817-3.307c.46-.363.91-.733 1.359-1.114.57-.552 1.116-1.09 1.65-1.624 2.402-2.41 4.318-4.56 5.847-6.45a49.289 49.289 0 0 0 2.002-2.629c.23-.32.449-.636.655-.939a33.094 33.094 0 0 0 1.492-2.423c.583-1.06.934-1.901 1.128-2.513-.582.23-1.25.46-2.001.684-5.193 1.55-14.097 2.956-21.28 3.616l14.159-.775-14.158.775c-.11.012-.219.018-.328.03-.716.061-1.444.115-2.172.176.134-.03.243-.061.377-.085l-48.443 2.653c-.085.085-.17.17-.267.26z"/><path fill="url(#g)" d="M197.46 34.107a407.034 407.034 0 0 0-14.073 11.296c-.267.218-.534.448-.8.672a500.856 500.856 0 0 0-13.892 12.132 547.823 547.823 0 0 0-13.175 12.314 607.934 607.934 0 0 0-12.314 12.211l48.443-2.653c14.11-3.24 20.418-6.172 26.545-10.412a160.368 160.368 0 0 0 4.89-3.658 175.373 175.373 0 0 0 14.218-12.392c4.21-4.1 7.923-8.165 10.773-11.829 1.808-2.332 3.264-4.5 4.27-6.402a35.344 35.344 0 0 0 2.112-4.791c-18.865 1.605-41.964 3.143-56.996 3.513z"/><path fill="#be202e" d="M173.88 105.13c.316-.018.619-.048.922-.067-.303.018-.606.042-.922.067z"/><path opacity=".35" fill="#be202e" d="M173.88 105.13c.316-.018.619-.048.922-.067-.303.018-.606.042-.922.067z"/><path fill="url(#h)" d="M173.88 105.13c.316-.018.619-.048.922-.067-.303.018-.606.042-.922.067z"/><path fill="#be202e" d="M173.91 105.12l.012-.01-.012.01z"/><path opacity=".35" fill="#be202e" d="M173.91 105.12l.012-.01-.012.01z"/><path fill="url(#i)" d="M173.91 105.12l.012-.01-.012.01z"/></svg>