<svg width="256" height="256" viewBox="0 0 256 256" xmlns="http://www.w3.org/2000/svg"><title>256</title><path d="M140.193 69.104a5.298 5.298 0 0 0-5.954 2.825l-22.549 45.823a5.315 5.315 0 0 0 .26 5.134 5.315 5.315 0 0 0 4.499 2.494h22.545a5.346 5.346 0 0 0 3.748-1.547 5.347 5.347 0 0 0 1.556-3.74V74.26c0-2.463-1.7-4.599-4.105-5.156zM181.388 15.3v104.793a5.33 5.33 0 0 0 1.55 3.74 5.353 5.353 0 0 0 3.747 1.547h65.776c-.908-48.596-29.697-90.382-71.073-110.08zm66.198 147.116h-60.901a5.33 5.33 0 0 0-3.747 1.543 5.327 5.327 0 0 0-1.55 3.745v72.483c31.845-15.159 56.236-43.406 66.198-77.77zm-108.592 0H93.026a5.29 5.29 0 0 0-4.762 2.948l-31.757 64.554c20.204 14.074 44.77 22.332 71.274 22.332 5.601 0 11.114-.374 16.517-1.087v-83.459c0-1.39-.57-2.76-1.556-3.745a5.323 5.323 0 0 0-3.748-1.543zm-99.105 0H7.975c4.308 14.862 11.316 28.575 20.456 40.585l16.22-32.965a5.313 5.313 0 0 0-.261-5.13 5.314 5.314 0 0 0-4.5-2.49zM3.1 125.38h60.216a5.287 5.287 0 0 0 4.756-2.96L126.7 3.25C59.112 3.825 4.357 58.068 3.1 125.38z" fill="#00BF9A" fill-rule="evenodd"/></svg>