<?xml version="1.0" encoding="UTF-8"?>
<svg width="213px" height="213px" viewBox="0 0 213 213" version="1.1" xmlns="http://www.w3.org/2000/svg" xmlns:xlink="http://www.w3.org/1999/xlink">
    <!-- Generator: Sketch 47.1 (45422) - http://www.bohemiancoding.com/sketch -->
    <title>Group</title>
    <desc>Created with Sketch.</desc>
    <defs></defs>
    <g id="Page-1" stroke="none" stroke-width="1" fill="none" fill-rule="evenodd">
        <g id="Group">
            <rect id="Rectangle" fill="#FFFFFF" x="0" y="0" width="213" height="213"></rect>
            <path d="M174.043015,18.98918 C174.865266,17.9533389 176.532105,18.5340801 176.532105,19.8574997 L176.532105,193.145888 C176.532105,193.917884 175.908088,194.541901 175.136093,194.541901 L150.012062,194.541901 C149.054397,194.541901 148.162345,194.050504 147.651405,193.239423 L127.728915,161.67419 L99.1343972,116.365218 C98.5006076,115.361486 98.5704083,114.067382 99.3075028,113.139034 L174.043015,18.98918 Z M82.3247353,134.859448 C83.1469864,133.823607 84.815221,134.405744 84.815221,135.727768 L84.815221,193.14575 C84.815221,193.917744 84.1898074,194.541761 83.4192087,194.541761 L37.865935,194.541761 C36.6988688,194.541761 36.0469311,193.193213 36.7728573,192.278825 L82.3247353,134.859448 Z" id="Mark" fill="#EF4546" fill-rule="nonzero"></path>
        </g>
    </g>
</svg>