<?xml version="1.0" encoding="UTF-8" standalone="no"?>
<svg
   xmlns:dc="http://purl.org/dc/elements/1.1/"
   xmlns:cc="http://creativecommons.org/ns#"
   xmlns:rdf="http://www.w3.org/1999/02/22-rdf-syntax-ns#"
   xmlns:svg="http://www.w3.org/2000/svg"
   xmlns="http://www.w3.org/2000/svg"
   viewBox="0 0 1423.3867 867.05603"
   height="867.05603"
   width="1423.3867"
   xml:space="preserve"
   id="svg2"
   version="1.1"><metadata
     id="metadata8"><rdf:RDF><cc:Work
         rdf:about=""><dc:format>image/svg+xml</dc:format><dc:type
           rdf:resource="http://purl.org/dc/dcmitype/StillImage" /></cc:Work></rdf:RDF></metadata><defs
     id="defs6"><clipPath
       id="clipPath18"
       clipPathUnits="userSpaceOnUse"><path
         id="path16"
         d="M 0,650.292 H 1067.54 V 0 H 0 Z" /></clipPath></defs><g
     transform="matrix(1.3333333,0,0,-1.3333333,0,867.056)"
     id="g10"><g
       id="g12"><g
         clip-path="url(#clipPath18)"
         id="g14"><g
           transform="translate(321.5199,376.8768)"
           id="g20"><path
             id="path22"
             style="fill:#0054a6;fill-opacity:1;fill-rule:nonzero;stroke:none"
             d="m 0,0 c -19.417,43.75 -56.917,76.25 -111.875,95.208 3.293,105.443 119.212,164.151 230.523,104.237 5.182,8.536 10.12,17.324 15.673,25.704 24.62,37.152 70.92,55.856 111.8,45.381 46.247,-11.851 84.023,-49.071 84.584,-94.011 l 0.013,-425.419 c -22.768,0 -53.205,-0.038 -78.47,0.007 -135.065,0.24 -270.144,-0.609 -405.191,1.127 -97.922,1.259 -170.073,77.053 -168.553,173.063 1.09,68.862 45.743,129.853 112.195,153.245 66.395,23.372 145.569,-0.596 189.707,-53.182" /></g><g
           transform="translate(679.7488,549.7274)"
           id="g24"><path
             id="path26"
             style="fill:#0054a6;fill-opacity:1;fill-rule:nonzero;stroke:none"
             d="m 0,0 c 107.306,0 214.612,-0.1 321.918,0.111 15.531,0.031 29.755,-2.911 42.227,-12.489 21.864,-16.791 28.329,-45.437 20.376,-67.146 -9.026,-24.64 -29.931,-40.704 -56.956,-40.852 -56.475,-0.309 -112.953,-0.107 -169.43,-0.11 C 105.424,-120.489 52.712,-120.487 0,-120.487 Z" /></g><g
           transform="translate(679.7488,399.1187)"
           id="g28"><path
             id="path30"
             style="fill:#0054a6;fill-opacity:1;fill-rule:nonzero;stroke:none"
             d="m 0,0 c 107.306,0 214.612,-0.1 321.918,0.111 15.531,0.031 29.755,-2.911 42.227,-12.489 21.864,-16.791 28.329,-45.437 20.376,-67.146 -9.026,-24.64 -29.931,-40.704 -56.956,-40.852 -56.475,-0.31 -112.953,-0.107 -169.43,-0.11 C 105.424,-120.489 52.712,-120.487 0,-120.487 Z" /></g><g
           transform="translate(679.7488,248.5099)"
           id="g32"><path
             id="path34"
             style="fill:#0054a6;fill-opacity:1;fill-rule:nonzero;stroke:none"
             d="m 0,0 c 107.306,0 214.612,-0.1 321.918,0.111 15.531,0.031 29.755,-2.911 42.227,-12.489 21.864,-16.791 28.329,-45.436 20.376,-67.146 -9.026,-24.64 -29.931,-40.704 -56.956,-40.852 -56.475,-0.309 -112.953,-0.107 -169.43,-0.11 C 105.424,-120.489 52.712,-120.487 0,-120.487 Z" /></g><g
           transform="translate(379.3446,14.7246)"
           id="g36"><path
             id="path38"
             style="fill:#0054a6;fill-opacity:1;fill-rule:nonzero;stroke:none"
             d="m 0,0 c 1.562,-0.828 4.112,-1.239 7.653,-1.239 h 18.43 c 7.496,0 11.245,2.685 11.245,8.059 v 13.175 c 0,5.166 -3.177,8.061 -9.527,8.681 H 6.091 C -0.366,27.951 -3.592,25.057 -3.592,19.995 V 6.82 C -3.592,3.512 -2.396,1.24 0,0 m -17.077,7.131 v 9.765 c 0,7.335 1.606,13.225 4.82,17.669 3.625,5.062 8.963,7.595 16.011,7.595 h 33.574 v 5.503 c 0,1.468 -0.518,2.751 -1.555,3.851 -1.036,1.099 -2.228,1.651 -3.574,1.651 H -17.077 V 66.65 h 48.205 c 10.642,0 17.101,-5.013 19.375,-15.035 0.206,-1.654 0.31,-2.893 0.31,-3.719 V 6.045 c 0,-3.72 -0.983,-7.183 -2.945,-10.385 -4.34,-6.924 -9.973,-10.385 -16.895,-10.385 H 3.848 c -4.03,0 -7.958,1.395 -11.78,4.185 -3.824,2.79 -6.459,6.097 -7.905,9.921 -0.828,2.271 -1.24,4.855 -1.24,7.75" /></g><g
           transform="translate(440.096,20.6152)"
           id="g40"><path
             id="path42"
             style="fill:#0054a6;fill-opacity:1;fill-rule:nonzero;stroke:none"
             d="m 0,0 v 40.3 c 0,6.716 2.51,11.882 7.537,15.5 4.655,3.305 11.028,4.96 19.117,4.96 H 63.601 V 47.274 H 26.51 c -7.014,0 -10.518,-2.901 -10.518,-8.704 V 3.129 c 0,-2.8 1.014,-5.21 3.045,-7.23 2.027,-2.019 4.704,-3.029 8.027,-3.029 H 63.785 V -20.615 H 27.021 c -5.393,0 -10.05,0.929 -13.97,2.79 C 4.348,-13.693 0,-7.75 0,0" /></g><g
           transform="translate(527.9857,42.0049)"
           id="g44"><path
             id="path46"
             style="fill:#0054a6;fill-opacity:1;fill-rule:nonzero;stroke:none"
             d="m 0,0 c 0,-2.274 1.085,-4.548 3.255,-6.82 l 33.79,-35.185 H 55.743 L 15.243,0.165 54.067,39.37 H 34.875 L 3.255,7.44 C 1.085,5.271 0,2.79 0,0 m -14.26,66.495 h 13.64 v -108.5 h -13.64 z" /></g><g
           transform="translate(593.7211)"
           id="g48"><path
             id="path50"
             style="fill:#0054a6;fill-opacity:1;fill-rule:nonzero;stroke:none"
             d="M 0,0 V 108.5 H 13.485 V 81.375 H 27.59 V 67.89 H 13.485 V 0 Z" /></g><g
           transform="translate(654.8765,13.4854)"
           id="g52"><path
             id="path54"
             style="fill:#0054a6;fill-opacity:1;fill-rule:nonzero;stroke:none"
             d="m 0,0 h 22.022 c 6.351,0 9.526,3.47 9.526,10.414 V 44.61 c 0,6.53 -3.175,9.794 -9.526,9.794 L 0,54.404 c -6.559,0 -9.837,-3.264 -9.837,-9.794 V 10.881 C -9.837,3.625 -6.559,0 0,0 m -23.322,6.51 v 42.314 c 0,11.16 6.045,17.462 18.135,18.91 0.412,0 1.032,0.051 1.86,0.156 h 26.66 c 0.722,0 1.807,-0.105 3.255,-0.31 12.296,-1.759 18.444,-8.01 18.444,-18.756 V 6.51 c 0,-7.441 -3.719,-13.28 -11.159,-17.515 -2.894,-1.654 -6.408,-2.48 -10.54,-2.48 h -25.42 c -10.335,0 -17.103,4.906 -20.306,14.724 -1.137,3.307 -1.448,5.063 -0.929,5.271" /></g><g
           transform="translate(709.9087)"
           id="g56"><path
             id="path58"
             style="fill:#0054a6;fill-opacity:1;fill-rule:nonzero;stroke:none"
             d="m 0,0 v 59.83 c 0,1.342 0.102,2.892 0.31,4.65 0.62,5.372 2.143,9.273 4.573,11.703 2.427,2.426 6.328,4.053 11.702,4.882 1.342,0.206 2.531,0.31 3.565,0.31 h 7.595 V 67.89 h -6.738 c -5.016,0 -7.522,-2.746 -7.522,-8.235 L 13.485,0 Z" /></g><g
           transform="translate(747.6742,0.4951)"
           id="g60"><path
             id="path62"
             style="fill:#0054a6;fill-opacity:1;fill-rule:nonzero;stroke:none"
             d="m 0,0 v 13.485 h 47.101 c 4.456,0.724 6.684,3.619 6.684,8.68 v 4.34 H 19.74 C 14.146,26.505 9.457,28.416 5.675,32.24 1.892,36.062 0,40.765 0,46.345 V 80.88 H 13.485 V 50.064 c 0,-6.717 3.228,-10.074 9.685,-10.074 h 21.242 c 6.249,0 9.373,2.892 9.373,8.68 V 80.88 H 67.27 V 22.939 C 67.27,15.914 65.512,10.385 62,6.354 58.176,2.119 52.802,0 45.88,0 Z" /></g><g
           transform="translate(307.8782,13.4588)"
           id="g64"><path
             id="path66"
             style="fill:#0054a6;fill-opacity:1;fill-rule:nonzero;stroke:none"
             d="m 0,0 h 23.853 c 0.728,0 1.196,0.051 1.404,0.155 3.22,0.723 5.195,3.256 5.925,7.602 0,0.102 0.05,0.258 0.154,0.467 V 45.3 c 0,6.001 -3.014,9 -9.042,9 H -1.559 c -4.885,0 -7.327,-2.896 -7.327,-8.687 V 9.775 c 0,-2.69 0.832,-4.992 2.495,-6.905 C -4.728,0.955 -2.599,0 0,0 M -22.345,9.437 V 94.831 H -8.886 V 67.759 H 22.61 c 12.514,0 19.754,-5.569 21.719,-16.707 0.309,-1.755 0.466,-2.993 0.466,-3.714 V 7.735 c 0,-9.181 -4.075,-15.574 -12.221,-19.183 -2.992,-1.341 -5.673,-2.011 -8.045,-2.011 H -2.079 c -5.777,0 -10.623,2.422 -14.542,7.271 -3.817,4.537 -5.724,9.746 -5.724,15.625" /></g></g></g></g></svg>