<?xml version="1.0" encoding="utf-8"?>
<svg version="1.1" id="Layer_1" xmlns="http://www.w3.org/2000/svg" xmlns:xlink="http://www.w3.org/1999/xlink" x="0px" y="0px"
	 viewBox="0 0 100 100" style="enable-background:new 0 0 100 100;" xml:space="preserve">
<style type="text/css">
	.st0{fill:#EC4331;}
	.st1{fill:#FFFFFF;}
</style>
<circle class="st0" cx="50" cy="50" r="50"/>
<path id="XMLID_21_" class="st1" d="M62.5,37.2c0.2,0.2,0.5,0.4,0.7,0.6l3.5-2.8l0.1-0.1c-0.5-0.5-1.1-1.1-1.7-1.5
	C57,27.2,44.8,29.8,37.9,39c-7,9.2-6.1,21.6,2,27.7c6.6,5,15.9,4.2,22.9-1.3l0,0l-3.3-2.6c-5.2,3.3-11.6,3.6-16.3,0.1
	c-6.2-4.7-6.9-14.2-1.5-21.3C47,34.4,56.3,32.5,62.5,37.2z"/>
</svg>
