<?xml version="1.0" encoding="utf-8"?>
<!-- Generator: Adobe Illustrator 21.1.0, SVG Export Plug-In . SVG Version: 6.00 Build 0)  -->
<svg version="1.1" id="Layer_1" xmlns="http://www.w3.org/2000/svg" xmlns:xlink="http://www.w3.org/1999/xlink" x="0px" y="0px"
	 viewBox="0 0 114 112" style="enable-background:new 0 0 114 112;" xml:space="preserve">
<style type="text/css">
	.st0{fill:#00C4B3;}
	.st1{fill:#22D3C5;}
	.st2{fill:#0075C9;}
	.st3{fill:#00A8E1;}
</style>
<path class="st0" d="M30.1,30.6L23,23.5v51.2l0.1,2.4c0,1.1,0.2,2.4,0.6,3.7l56.2,19.8l14-6.2l0,0L30.1,30.6z"/>
<path class="st1" d="M23.7,80.8L23.7,80.8L23.7,80.8L23.7,80.8z M93.9,94.4l-14,6.2L23.8,80.8c1.1,4.1,3.4,8.7,6,11.3l18.3,18.2
	l40.8,0.1L93.9,94.4L93.9,94.4z"/>
<path class="st2" d="M23.2,23.5l-21.8,33c-1.8,1.9-0.9,5.9,2,8.9L16,78.1l7.9,2.8c-0.3-1.3-0.6-2.6-0.6-3.7l-0.1-2.4L23.2,23.5
	L23.2,23.5z"/>
<path class="st2" d="M80.3,24.1c-1.3-0.3-2.6-0.5-3.7-0.6l-2.5-0.1H23l70.9,70.9l0,0l6.2-14L80.3,24.1z"/>
<path class="st3" d="M80.2,24.1C80.3,24.1,80.3,24.1,80.2,24.1L80.2,24.1C80.3,24.1,80.3,24.1,80.2,24.1z M91.6,30.1
	c-2.6-2.6-7.1-5-11.3-6l19.8,56.2l-6.2,14l0,0l15.2-4.9V47.7L91.6,30.1z"/>
<path class="st0" d="M77.5,16.3L64.8,3.7c-2.9-2.9-6.9-3.8-8.9-2l-33,21.8H74l2.5,0.1c1.1,0,2.4,0.2,3.7,0.6L77.5,16.3z"/>
</svg>
