<svg xmlns="http://www.w3.org/2000/svg" viewBox="0 0 1709 768"><g fill="#E82C2A"><path d="M1154.2 134.3v421.1h126.4v-64.3h-41.8V70.2h-84.7zM55.9 491.1h43V287.9h-43V232l43-7.1v-56.6c0-68.5 14.9-98.2 102.3-98.2 18.9 0 41.2 2.8 60.8 6.3l-11.6 68.9c-13.3-2.1-19.8-2.5-28.2-2.5-30.8 0-38.6 3.1-38.6 33.1V225h63.9v62.9h-63.9V491h42.5v64.3H55.9v-64.2zm1055.2-20.4c-13.2 2.8-24.8 2.5-33.2 2.7-34.8.9-31.8-10.6-31.8-43.5v-142h66.3V225H1046V70.2h-84.7v377.3c0 74.1 18.3 107.9 98 107.9 18.9 0 44.8-4.9 64.4-9l-12.6-75.7zm526.1 20.7c17.8 0 32.2 14.1 32.2 32 0 17.8-14.4 31.9-32.2 31.9-17.8 0-32.1-14.1-32.1-31.9 0-17.8 14.3-32 32.1-32m0 58.9c14.8 0 26.8-12.1 26.8-26.9 0-14.8-12-26.6-26.8-26.6s-26.7 11.8-26.7 26.6 11.9 26.9 26.7 26.9m5.9-11.2l-6.5-9.5h-4.5v9.5h-7.2v-31.4h13.1c7.8 0 12.6 3.9 12.6 10.9 0 5.1-2.6 8.6-6.6 9.8l7.8 10.8h-8.7zm-10.9-15.8h5.7c3.3 0 5.5-1.3 5.5-4.7 0-3.3-2.2-4.6-5.3-4.6h-5.9v9.3zM855.6 287.8v-11.3c-25.6-4.7-51.1-4.7-64.9-4.7-39.4 0-44.2 20.9-44.2 32.2 0 16 5.5 24.7 48.2 34 62.4 14 125.1 28.6 125.1 106 0 73.4-37.8 111.3-117.3 111.3-53.2 0-104.8-11.4-144.2-21.4v-63.2h64.1v11.2c27.6 5.3 56.5 4.8 71.6 4.8 42 0 48.8-22.6 48.8-34.6 0-16.7-12.1-24.7-51.5-32.7-74.2-12.7-133.2-38-133.2-113.5 0-71.4 47.7-99.4 127.3-99.4 53.9 0 94.8 8.4 134.2 18.4v62.8h-64zm-389.7 55.6l-6.4-6.4-32.7 28.5c-1.7-.6-3.4-.9-5.3-.9-8.8 0-16 7.4-16 16.4 0 9.1 7.2 16.4 16 16.4s16-7.4 16-16.4c0-1.7-.3-3.4-.7-4.9l29.1-32.7z"/><path d="M595.6 470.7l-.1-263.6h-84.7v24.7c-17.4-10.5-36.9-17.9-57.6-21.8h.5v-29.2H464v-21.5h-85.3v21.5H389V210h.6c-81 14.9-142.4 85.8-142.4 171.2 0 96.2 77.9 174.1 174.1 174.1 32.8 0 63.5-9.1 89.7-24.9l15.3 24.9h89.5v-84.7h-20.2zm-169.1-.1v-10h-10.1v9.9c-45.5-2.6-81.8-39.2-84.2-84.7h10.1v-10.1h-10c2.7-45.2 38.9-81.4 84.1-84v10h10.1v-10c44.6 2.4 80.5 37.4 84.4 81.5v2.9h-10.2v10.1h10.2v2.8c-3.8 44.2-39.8 79.2-84.4 81.6zM1495 225h174.7v62.9h-41.8l-107.1 263.6c-30.7 74-81.1 143.7-157.9 143.7-18.9 0-44-2.1-61.5-6.3l7.7-76.9c11.2 2.1 25.8 3.5 33.5 3.5 35.6 0 75.8-22.1 88.4-60.5l-108.6-267.1h-41.8V225h174.8v62.9h-41.7l61.5 151.3 61.5-151.3H1495V225z"/></g></svg>