<svg id="Layer_1" data-name="Layer 1" xmlns="http://www.w3.org/2000/svg" viewBox="0 0 350 426.87"><defs><style>.cls-1{fill:#355667}.cls-2{fill:#f0f0f1}</style></defs><title>gravityforms</title><g id="Rpqhq1.tif"><path class="cls-1" d="M75 343V200.68a44.86 44.86 0 0 0 1.75-4.59c4.83-18.29 14.36-33.22 31-42.86 36.63-21.17 73.2-42.44 110-63.25 19.89-11.24 40.57-11.05 61.3-1.81 1.63.73 3.32 1.32 6.3 2.5-2.2-17 7.31-25.22 20-31.83 13.45-7 26.48-14.81 39.69-22.27h10.17c15.29 8.65 30.48 17.47 45.89 25.9 9.43 5.16 14.16 13 14.32 23.45q.34 22.47 0 44.95c-.17 9.85-4.4 17.65-13.26 22.6a15.69 15.69 0 0 0-2.69 2.07c6.32 8.87 12.87 16.91 18.08 25.74 3.46 5.88 5 12.88 7.39 19.39V343a28 28 0 0 0-1.55 4c-4.49 20.18-15.36 35.52-33.52 45.86-35.47 20.19-70.7 40.8-106.17 61-22.39 12.75-45.13 12.76-67.52 0-35.88-20.45-71.55-41.26-107.42-61.74-14.51-8.3-24-20.6-29.76-36.06-1.55-4.27-2.67-8.71-4-13.06zm18.61-70.93c0 20.81-.18 41.63.05 62.44.2 18.09 8.12 32.27 23.71 41.39q54.15 31.68 108.71 62.65c15.72 9 31.95 9 47.68.08q54.52-31 108.72-62.63c15.84-9.27 23.84-23.62 23.89-42 .11-41.14 0-82.29.08-123.43 0-14.19-5.56-25.84-15.32-35.61-8.79-8.79-10.93-8.86-21.66-2.64-1.67 1-3.37 1.91-5 2.9q-14 8.37-28.15.13c-8.78-5.1-17.2-11-26.46-15.05-18.56-8.05-27.71-20.88-24.79-41.51.32-2.28-.5-5.88-2.13-7.11-15.77-11.88-36.24-17-55.68-6.07q-55.28 31.16-110 63.31c-15.58 9.12-23.39 23.39-23.57 41.48-.23 20.52-.08 41.1-.08 61.67zM332 104.34c-.64-6 2.5-6.93 6.57-6.93h31.2c5.56 0 11.13-.07 16.69-.08s6.08-4.45 5.81-8.1c-.11-1.42-3.86-3.63-6-3.67-17.17-.29-34.35-.28-51.52-.08-10.18.12-14.29 3.66-16.27 13.85-1.65 8.53-3 17.13-4.19 25.73-1.07 7.56 1.39 10 8.56 7.63 2.24-.75 4.55-4.82 4.72-7.5.45-7.14 3.39-9.33 10.49-9 12.06.62 24.18.29 36.27.06 2.4 0 5.64-.8 6.93-2.45s1.76-5.26 1-7.45c-.43-1.24-4-1.91-6.2-1.93-14.61-.16-29.29-.08-44.06-.08z" transform="translate(-75 -36.56)"/><path class="cls-2" d="M332 104.34c14.73 0 29.41-.08 44.09.09 2.18 0 5.77.69 6.2 1.93.76 2.19.39 5.68-1 7.45s-4.53 2.4-6.93 2.45c-12.09.24-24.21.56-36.27-.06-7.1-.36-10 1.83-10.49 9-.17 2.68-2.49 6.75-4.72 7.5-7.17 2.4-9.63-.06-8.56-7.63 1.22-8.6 2.53-17.2 4.19-25.73 2-10.19 6.09-13.73 16.27-13.85 17.17-.2 34.35-.21 51.52.08 2.12 0 5.88 2.25 6 3.67.27 3.65-.15 8.1-5.81 8.1s-11.13.07-16.69.08h-31.2c-4.06 0-7.2.96-6.6 6.92z" transform="translate(-75 -36.56)"/><path class="cls-1" d="M130.84 336.34c-3.76-31-2.92-61.15 8.18-90.31 12.64-33.2 36.3-49.35 71.63-49.35h157v40.17H211.96c-20 0-29.28 6.1-35.69 25.23-3.55 10.59-5.23 21.8-8 33.85 4.65.27 7.45.56 10.25.57h138.63c9.36 0 9.36 0 9.37-9.63v-11.48h39.64v60.94z" transform="translate(-75 -36.56)"/></g></svg>