<?xml version="1.0" standalone="no"?>
<!DOCTYPE svg PUBLIC "-//W3C//DTD SVG 20010904//EN"
 "http://www.w3.org/TR/2001/REC-SVG-20010904/DTD/svg10.dtd">
<svg version="1.0" xmlns="http://www.w3.org/2000/svg"
 width="256.000000pt" height="256.000000pt" viewBox="0 0 256.000000 256.000000"
 preserveAspectRatio="xMidYMid meet">

<g transform="translate(0.000000,256.000000) scale(0.100000,-0.100000)"
fill="#000000" stroke="none">
<path d="M1035 2500 c-508 -110 -892 -503 -980 -1005 -23 -130 -21 -330 5
-454 102 -500 477 -877 977 -980 139 -29 345 -29 484 -1 435 89 783 390 933
808 87 244 90 554 5 806 -137 409 -471 713 -898 818 -127 31 -401 35 -526 8z
m-203 -1195 l-57 -190 -62 -3 -61 -3 29 93 c16 50 29 96 29 101 0 4 -19 7 -42
5 l-41 -3 -30 -97 -30 -98 -59 0 c-52 0 -59 2 -54 18 3 9 15 50 27 90 11 40
19 76 16 79 -4 3 -23 -4 -43 -16 -20 -12 -38 -21 -39 -19 -8 8 54 85 83 103
22 14 36 35 50 75 l19 55 56 3 c64 3 66 0 42 -67 l-14 -41 44 0 44 0 16 55 16
54 57 3 c31 2 58 1 59 -2 2 -3 -23 -90 -55 -195z m418 5 l0 -200 -55 0 -55 0
0 40 0 40 -60 0 c-59 0 -60 0 -80 -40 l-20 -40 -65 0 -64 0 104 173 c57 94
114 182 127 194 18 17 38 23 93 26 39 1 71 4 73 5 1 1 2 -88 2 -198z m742 190
c54 -15 81 -54 72 -105 -23 -140 -64 -237 -112 -267 -30 -18 -51 -22 -131 -22
-170 -1 -199 29 -163 173 39 163 65 199 157 222 45 11 135 10 177 -1z m-492
-11 c0 -6 -16 -63 -35 -126 -19 -64 -35 -124 -35 -134 0 -26 37 -33 125 -26
l73 7 -14 -47 c-8 -25 -17 -49 -20 -52 -3 -3 -56 -6 -118 -6 -188 0 -199 20
-135 245 l43 150 58 0 c35 0 58 -4 58 -11z"/>
<path d="M1108 1339 c-21 -36 -38 -69 -38 -72 0 -13 71 -7 76 7 3 7 4 40 2 72
l-3 59 -37 -66z"/>
<path d="M1839 1420 c-19 -11 -29 -36 -60 -138 -24 -84 -18 -102 36 -102 48 0
71 26 100 112 29 88 31 123 9 132 -23 9 -67 7 -85 -4z"/>
</g>
</svg>
