<?xml version="1.0" encoding="utf-8"?>
<!-- Generator: Adobe Illustrator 20.0.0, SVG Export Plug-In . SVG Version: 6.00 Build 0)  -->
<svg version="1.0" id="Layer_1" xmlns="http://www.w3.org/2000/svg"  width="700" height="700" viewBox="0 0 700 700">
<style type="text/css">
	.st0{fill:#424242;}
	.st1{fill:#FFA605;}
</style>
<title>ac</title>
<path class="st0" d="M76.1,106H0v486.6h57.1V269.1c0-8.2,4.1-16.3,12.2-21.7c12.2-6.8,27.2-4.1,35.3,8.2l214.8,337.1h68L76.1,106z"
	/>
<path class="st0" d="M651.1,116.9c-21.7-6.8-44.9-10.9-66.6-10.9c-59.8,0-116.9,25.8-157.7,70.7c-88.3,97.9-88.3,246-1.4,345.2
	l1.4,1.4c40.8,44.9,97.9,70.7,157.7,70.7c23.1,0,44.9-4.1,66.6-10.9c17.7-5.4,34-13.6,48.9-24.5c-5.4-6.8-12.2-15-16.3-21.7
	c-4.1-6.8-10.9-16.3-15-24.5c-25.8,15-54.4,23.1-84.3,23.1c-46.2,0-91.1-20.4-123.7-54.4c-66.6-73.4-66.6-186.2,0-259.6
	c31.3-34,76.1-54.4,123.7-54.4c29.9,0,58.4,8.2,84.3,23.1c4.1-8.2,9.5-16.3,15-24.5c5.4-8.2,10.9-15,16.3-21.7
	C685,131.8,668.7,123.7,651.1,116.9z"/>
<path class="st1" d="M135.9,106h292.2c-15,10.9-28.5,23.1-40.8,35.3c-25.8,27.2-46.2,59.8-59.8,95.1s-20.4,73.4-20.4,111.5
	c0,9.5,0,19,1.4,28.5L135.9,106z"/>
</svg>
