<?xml version="1.0" encoding="UTF-8" standalone="no"?>
<svg xmlns:dc="http://purl.org/dc/elements/1.1/" xmlns:cc="http://creativecommons.org/ns#" xmlns:rdf="http://www.w3.org/1999/02/22-rdf-syntax-ns#" xmlns:svg="http://www.w3.org/2000/svg" xmlns="http://www.w3.org/2000/svg" xmlns:sodipodi="http://sodipodi.sourceforge.net/DTD/sodipodi-0.dtd" xmlns:inkscape="http://www.inkscape.org/namespaces/inkscape" width="110.03257" height="107.5" viewBox="0 0 88.026056 86" version="1.1" id="svg2" inkscape:version="0.48.3.1 r9886" sodipodi:docname="popwe.svg">
  <metadata id="metadata126">
    <rdf:RDF>
      <cc:Work rdf:about="">
        <dc:format>image/svg+xml</dc:format>
        <dc:type rdf:resource="http://purl.org/dc/dcmitype/StillImage"/>
        <dc:title/>
      </cc:Work>
    </rdf:RDF>
  </metadata>
  <defs id="defs124"/>
  <sodipodi:namedview pagecolor="#ffffff" bordercolor="#666666" borderopacity="1" objecttolerance="10" gridtolerance="10" guidetolerance="10" inkscape:pageopacity="0" inkscape:pageshadow="2" inkscape:window-width="1280" inkscape:window-height="960" id="namedview122" showgrid="false" inkscape:zoom="1.0905983" inkscape:cx="258.62288" inkscape:cy="53.75" inkscape:window-x="0" inkscape:window-y="0" inkscape:window-maximized="1" inkscape:current-layer="svg2" fit-margin-top="0" fit-margin-left="0" fit-margin-right="0" fit-margin-bottom="0"/>
  <path d="m 46.01,0 5.98,0 c 0,6.67 0,13.33 0,20 10.36,0.02 20.71,-0.03 31.06,0 2.04,-0.1 4.83,0.49 4.79,3.06 0.38,12.65 0.01,25.33 0.18,37.99 0.04,2.24 -0.03,5.77 -3.08,5.8 -10.97,0.38 -21.97,0.03 -32.95,0.15 0,6.33 0,12.67 0,19 l -6.2,0 C 30.55,83.23 15.27,80.68 0.01,78 0,54.67 0,31.34 0,8.02 15.34,5.33 30.68,2.73 46.01,0 z" id="path18" inkscape:connector-curvature="0" style="fill:#0071c5"/>
  <path d="m 51.99,23 c 11.08,0.01 22.15,-0.03 33.23,0.02 -0.19,1.31 -0.59,2.6 -1.69,3.42 C 76.91,32.61 70.33,38.81 63.73,45 59.76,41.41 55.9,37.7 51.99,34.05 c 0,-3.69 0,-7.37 0,-11.05 z" id="path64" inkscape:connector-curvature="0" style="fill:#ffffff"/>
  <path d="m 21.44,26.66 c 5.64,-2.13 12.23,0.86 14.62,6.31 3.26,7.5 2.8,17.76 -3.68,23.43 -5.97,5.11 -15.98,2.2 -18.7,-5.06 -3.58,-8.37 -1.84,-21.25 7.76,-24.68 z" id="path76" inkscape:connector-curvature="0" style="fill:#ffffff"/>
  <path d="m 66.87,45.89 c 6.01,-5.71 12.07,-11.38 18.11,-17.06 0.03,11.72 0,23.45 0.01,35.17 -11,0 -22,0 -33,0 0,-8.72 -0.01,-17.44 0.01,-26.15 3.73,3.3 7.07,7.06 11.03,10.07 1.63,0.3 2.73,-1.11 3.84,-2.03 z" id="path92" inkscape:connector-curvature="0" style="fill:#ffffff"/>
  <path d="m 22.41,32.67 c 2.66,-1.27 5.99,0.02 7.24,2.65 2,3.96 1.99,8.79 0.68,12.97 -0.93,2.97 -4.18,5.42 -7.33,4.25 -3.93,-1.24 -5.12,-5.9 -5.16,-9.55 -0.05,-3.78 0.82,-8.49 4.57,-10.32 z" id="path96" inkscape:connector-curvature="0" style="fill:#0071c5"/>
</svg>