<svg width="170" height="139" viewBox="0 0 170 139" xmlns="http://www.w3.org/2000/svg" xmlns:xlink="http://www.w3.org/1999/xlink"><title>logo-green-icon</title><defs><path d="M95.447 69.363h.012l-.006.015v.001c-.414 1.055-20.237 51.304-44.586 51.304-24.603 0-29.696-18.224-30.903-51.304C21.168 36.29 26.26 18.06 50.867 18.06c24.35 0 44.166 50.248 44.58 51.303zm22.645.009L139 113.037l5.17-10.49h25.36l-19.608 33.02h-25.65s-16.229-34.099-19.3-44.036c0 0-14.019 31.111-30.552 41.427-16.533 10.317-40.271 3.69-40.271 3.69s-24.9-6.606-31.633-39.35C.636 88.151-.143 78.654.02 69.372c-.164-9.283.614-18.78 2.495-27.927C9.248 8.701 34.149 2.095 34.149 2.095s23.738-6.627 40.271 3.69c16.533 10.316 30.553 41.428 30.553 41.428 3.07-9.938 19.3-44.038 19.3-44.038h25.65l19.606 33.022H144.17L139 25.707l-20.908 43.665z" id="a"/><linearGradient x1="90.535%" y1="23.093%" x2="50%" y2="68.905%" id="b"><stop stop-opacity=".199" offset="0%"/><stop stop-opacity="0" offset="100%"/></linearGradient></defs><g fill="none" fill-rule="evenodd"><mask id="c" fill="#fff"><use xlink:href="#a"/></mask><use fill="#4DC997" xlink:href="#a"/><path d="M95.661 69.299l9.262 22.18-7.743 21.238L76.9 87.519l18.761-18.22z" fill="url(#b)" opacity=".2" mask="url(#c)"/></g></svg>