<svg width="100" height="100" viewBox="0 0 100 100" xmlns="http://www.w3.org/2000/svg"><title>Artboard 1</title><defs><linearGradient x1="50%" y1="0%" x2="50%" y2="100.003%" id="a"><stop stop-color="#7AC943" offset="0%"/><stop stop-color="#3FA9F5" offset="100%"/></linearGradient></defs><path d="M89.614 53.836c.728-1.187.4-2.827-.726-3.646L69.971 36.446c-1.125-.818-2.165-2.62-2.312-4.005l-1.323-12.603c-.144-1.384-1.344-2.154-2.664-1.714L11.72 35.497a2.525 2.525 0 0 0-1.586 3.2l9.837 28.968c.448 1.317 1.928 2.637 3.288 2.93L70.31 80.77c1.36.293 3.07-.437 3.795-1.624l15.51-25.31zM46.808 40.972c-.82 1.125-2.605 1.8-3.965 1.501l-22.09-4.859c-1.36-.298-1.393-.904-.073-1.346l36.704-12.275c1.32-.443 1.728.117.91 1.243L46.808 40.972zm14.94-14.408c.82-1.126 1.61-.912 1.756.472l4.515 43.053c.144 1.384-.405 1.595-1.221.467L49.768 47.06c-.816-1.128-.813-2.968.008-4.094l11.971-16.402zM15.111 42.246c-.448-1.317.3-2.152 1.66-1.853l25.783 5.672c1.36.299 3.141 1.467 3.957 2.592l18.571 25.619c.816 1.128.373 1.808-.99 1.512L25.99 67.534c-1.36-.296-2.84-1.613-3.288-2.933l-7.59-22.355zm53.576.011c-.144-1.384.66-1.848 1.784-1.03l13.646 9.915c1.125.82 1.453 2.46.725 3.646l-11.35 18.55c-.725 1.186-1.44 1.026-1.583-.358l-3.222-30.723z" fill="url(#a)" fill-rule="evenodd"/></svg>