<svg xmlns="http://www.w3.org/2000/svg" viewBox="0 0 492.871 492.871" width="512" height="512"><path d="M397.502 402.607l-45.2-60.268a22.64 22.64 0 0 1-4.5-13.5V183.871h9.042c11.3 0 20.494-9.193 20.494-20.494 0-10.962-8.652-19.941-19.485-20.47v-31.489C357.854 49.982 307.872 0 246.436 0S135.017 49.982 135.017 111.418v31.489c-10.833.528-19.485 9.508-19.485 20.47 0 11.3 9.194 20.494 20.494 20.494h9.042v144.968a22.64 22.64 0 0 1-4.5 13.5l-45.2 60.268a7.5 7.5 0 0 0 12 9l45.2-60.268a37.738 37.738 0 0 0 7.5-22.5V183.871h27.667v197.375a42.26 42.26 0 0 1-3.436 16.74l-21.558 50.307a7.5 7.5 0 1 0 13.787 5.908l21.558-50.307a57.19 57.19 0 0 0 4.648-22.648V183.871h36.2v301.5a7.5 7.5 0 0 0 15 0v-301.5h36.2v197.375a57.182 57.182 0 0 0 4.648 22.648l21.558 50.307a7.502 7.502 0 0 0 6.897 4.548 7.5 7.5 0 0 0 6.89-10.456l-21.558-50.307a42.26 42.26 0 0 1-3.436-16.74V183.871H332.8v144.968a37.738 37.738 0 0 0 7.5 22.5l45.2 60.268a7.488 7.488 0 0 0 6.006 3 7.473 7.473 0 0 0 4.494-1.5 7.498 7.498 0 0 0 1.502-10.5zm-266.97-239.23a5.5 5.5 0 0 1 5.494-5.494h178.676a7.5 7.5 0 0 0 0-15H150.017v-31.465C150.017 58.253 193.27 15 246.436 15s96.418 43.253 96.418 96.418v38.965a7.5 7.5 0 0 0 7.5 7.5h6.491c3.029 0 5.494 2.465 5.494 5.494s-2.465 5.494-5.494 5.494H136.026a5.5 5.5 0 0 1-5.494-5.494zm194.217-44.459a7.5 7.5 0 0 1-7.5-7.5c0-39.046-31.767-70.813-70.813-70.813a7.5 7.5 0 0 1 0-15c47.317 0 85.813 38.496 85.813 85.813a7.5 7.5 0 0 1-7.5 7.5z" fill="#2f707b"/></svg>