<svg xmlns="http://www.w3.org/2000/svg" viewBox="0 0 83.097 84.171997" height="84.172" width="83.097"><path d="M62.872 58.006c-1.247.368-2.242.506-3.547.506-10.691 0-26.389-37.359-26.389-49.793 0-4.577 1.083-6.104 2.613-7.415C22.465 2.831 6.765 7.633 1.745 13.737.66 15.266 0 17.663 0 20.717c0 19.41 20.718 63.455 35.332 63.455 6.763.001 18.162-11.113 27.54-26.166M56.048 0c13.52 0 27.049 2.18 27.049 9.812 0 15.483-9.819 34.246-14.832 34.246-8.942 0-20.065-24.867-20.065-37.301C48.201 1.087 50.381 0 56.048 0" fill="#ff8700"/></svg>