<svg width="140" height="164" viewBox="0 0 140 164" xmlns="http://www.w3.org/2000/svg"><title>Group + logo copy 2</title><g fill="none" fill-rule="evenodd"><g fill="#00A5C9"><circle cx="15.4" cy="128.8" r="2.1"/><circle cx="34.3" cy="141.4" r="7"/><ellipse cx="38.5" cy="160.3" rx="2.8" ry="2.8"/><ellipse cx="65.8" cy="147" rx="4.9" ry="4.9"/><circle cx="85.4" cy="148.4" r="9.1"/><circle cx="49" cy="142.1" r="2.1"/><ellipse cx="119" cy="117.6" rx="5.6" ry="5.6"/><circle cx="99.4" cy="130.2" r="2.1"/><ellipse cx="98.7" cy="136.5" rx="1.4" ry="1.4"/><circle cx="107.8" cy="125.3" r="2.1"/><ellipse cx="115.5" cy="128.8" rx="1.4" ry="1.4"/><circle cx="120.4" cy="132.3" r="2.1"/><ellipse cx="126" cy="103.6" rx="4.9" ry="4.9"/><circle cx="133" cy="109.9" r="2.1"/><ellipse cx="138.6" cy="102.9" rx="1.4" ry="1.4"/><ellipse cx="135.1" cy="97.3" rx="2.8" ry="2.8"/><circle cx="128.8" cy="88.2" r="4.2"/><ellipse cx="137.2" cy="81.9" rx="2.8" ry="2.8"/><circle cx="124.6" cy="79.8" r="2.1"/><ellipse cx="128.8" cy="72.1" rx="2.8" ry="2.8"/><ellipse cx="133" cy="61.6" rx="2.8" ry="2.8"/><ellipse cx="130.2" cy="47.6" rx="2.8" ry="2.8"/><ellipse cx="123.2" cy="53.9" rx="2.8" ry="2.8"/><circle cx="119" cy="39.9" r="3.5"/><ellipse cx="114.1" cy="30.1" rx="2.8" ry="2.8"/><circle cx="105.7" cy="27.3" r="2.1"/><ellipse cx="101.5" cy="13.3" rx="6.3" ry="6.3"/><circle cx="85.4" cy="13.3" r="4.2"/><circle cx="74.9" cy="3.5" r="3.5"/><ellipse cx="67.2" cy="9.8" rx="2.8" ry="2.8"/><circle cx="57.4" cy="9.8" r="2.1"/><circle cx="42" cy="10.5" r="2.1"/><ellipse cx="59.5" cy="76.3" rx="59.5" ry="59.5"/></g><path d="M64.897 65.398a2.865 2.865 0 1 1-5.73 0 2.865 2.865 0 0 1 5.73 0m2.19 5.217a1.481 1.481 0 1 1-2.962 0 1.481 1.481 0 0 1 2.962 0m.823-12.578a3.012 3.012 0 1 1-6.024 0 3.012 3.012 0 0 1 6.024 0m6.722 7.006a3.993 3.993 0 1 1-7.987 0 3.993 3.993 0 0 1 7.987 0M20.48 76.072h3.326v6.574c0 1.23.085 2.083.254 2.56.169.48.44.85.816 1.116.374.265.835.397 1.383.397s1.012-.13 1.396-.391c.382-.261.666-.645.852-1.151.136-.378.205-1.185.205-2.423v-6.681h3.29v5.813c0 2.29-.18 3.857-.543 4.701-.441 1.028-1.092 1.818-1.952 2.368-.86.55-1.952.826-3.278.826-1.439 0-2.602-.321-3.49-.965-.888-.642-1.512-1.538-1.874-2.687-.257-.795-.385-2.241-.385-4.339v-5.718m20.843 2.09L39.286 80.2c-.828-.82-1.579-1.229-2.254-1.229-.37 0-.658.078-.867.235-.21.156-.314.352-.314.584 0 .177.066.34.2.489.131.148.459.351.981.608l1.206.603c1.27.627 2.14 1.265 2.615 1.916.474.651.71 1.414.71 2.29 0 1.165-.427 2.137-1.283 2.917-.855.78-2.002 1.17-3.44 1.17-1.913 0-3.44-.749-4.58-2.243l2.024-2.205c.386.45.838.813 1.356 1.09.518.277.978.416 1.38.416.434 0 .784-.104 1.049-.313.265-.21.397-.45.397-.723 0-.507-.477-1-1.434-1.483l-1.109-.554c-2.12-1.07-3.181-2.406-3.181-4.014 0-1.036.4-1.922 1.199-2.658.8-.734 1.822-1.102 3.067-1.102a5.322 5.322 0 0 1 4.315 2.169m11.037-1.06h3.29v12.34h-3.29v-1.386c-.642.611-1.286 1.05-1.932 1.32a5.415 5.415 0 0 1-2.1.404c-1.694 0-3.159-.657-4.395-1.97-1.236-1.315-1.854-2.948-1.854-4.9 0-2.025.598-3.684 1.794-4.978 1.195-1.293 2.648-1.94 4.358-1.94.787 0 1.524.148 2.215.446.69.297 1.328.743 1.914 1.338v-.674zm-3.459 1.927c-1.017 0-1.862.36-2.534 1.08-.673.718-1.01 1.64-1.01 2.765 0 1.133.343 2.065 1.027 2.796.685.731 1.528 1.097 2.529 1.097 1.033 0 1.89-.36 2.57-1.079.681-.719 1.022-1.661 1.022-2.826 0-1.141-.34-2.065-1.021-2.772-.681-.707-1.542-1.06-2.583-1.06zm10.819-7.247v5.994c.595-.595 1.238-1.04 1.929-1.338a5.544 5.544 0 0 1 2.218-.446c1.711 0 3.165.647 4.363 1.94 1.197 1.294 1.795 2.953 1.795 4.978 0 1.952-.618 3.585-1.855 4.9-1.238 1.313-2.704 1.97-4.4 1.97a5.471 5.471 0 0 1-2.109-.404c-.65-.27-1.298-.709-1.94-1.32v1.386h-3.267v-17.66h3.267zm3.46 7.247c-1.037 0-1.897.354-2.58 1.06-.682.708-1.024 1.632-1.024 2.773 0 1.165.342 2.107 1.024 2.826.683.72 1.543 1.079 2.58 1.079 1.004 0 1.85-.366 2.537-1.097.687-.73 1.03-1.663 1.03-2.796 0-1.125-.337-2.047-1.012-2.766-.675-.72-1.527-1.079-2.555-1.079zm12.142-7.247h3.29v17.66h-3.29v-17.66zm4.168 0h3.291v17.66h-3.29v-17.66zm14.466 5.32h3.29v12.34h-3.29v-1.386c-.642.611-1.286 1.05-1.932 1.32a5.42 5.42 0 0 1-2.1.404c-1.694 0-3.159-.657-4.395-1.97-1.236-1.315-1.854-2.948-1.854-4.9 0-2.025.598-3.684 1.794-4.978 1.196-1.293 2.648-1.94 4.358-1.94.787 0 1.524.148 2.215.446.69.297 1.328.743 1.914 1.338v-.674zm-3.459 1.927c-1.017 0-1.862.36-2.534 1.08-.673.718-1.01 1.64-1.01 2.765 0 1.133.343 2.065 1.028 2.796.685.731 1.527 1.097 2.528 1.097 1.033 0 1.89-.36 2.57-1.079.681-.719 1.022-1.661 1.022-2.826 0-1.141-.34-2.065-1.021-2.772-.681-.707-1.542-1.06-2.583-1.06zm-17.955-.633c-.909 0-1.646.736-1.646 1.645v9.401h3.29v-9.4c0-.91-.736-1.646-1.644-1.646m-1.243-7.129c.813 0 1.51.295 2.092.884.581.588.873 1.302.873 2.14a2.9 2.9 0 0 1-.865 2.115c-.575.584-1.265.875-2.066.875a2.843 2.843 0 0 1-2.11-.892c-.581-.594-.872-1.316-.872-2.166 0-.815.288-1.512.864-2.09a2.836 2.836 0 0 1 2.084-.866" fill="#FFF"/></g></svg>