<?xml version="1.0" standalone="no"?>
<!DOCTYPE svg PUBLIC "-//W3C//DTD SVG 20010904//EN"
        "http://www.w3.org/TR/2001/REC-SVG-20010904/DTD/svg10.dtd">
<svg version="1.0" xmlns="http://www.w3.org/2000/svg"
     width="790.000000pt" height="763.000000pt" viewBox="0 0 790.000000 763.000000"
     preserveAspectRatio="xMidYMid meet">
    <metadata>
        UserGuiding .svg logo icon
    </metadata>
    <g transform="translate(0.000000,763.000000) scale(0.100000,-0.100000)"
       fill="#F75C3D" stroke="none">
        <path d="M3700 7609 c-110 -23 -266 -83 -354 -136 -34 -20 -700 -500 -1481
-1067 -1301 -944 -1429 -1039 -1525 -1136 -157 -159 -250 -321 -307 -537 -35
-132 -44 -382 -18 -518 26 -140 1095 -3426 1155 -3551 60 -125 142 -235 251
-340 132 -126 276 -213 445 -270 170 -57 70 -54 2089 -54 1629 0 1873 2 1937
15 417 87 757 383 897 780 85 244 1083 3337 1095 3397 21 100 22 367 2 470
-30 158 -102 326 -198 466 -106 152 -154 190 -1190 943 -541 393 -1185 861
-1433 1041 -247 180 -483 346 -524 369 -98 57 -224 103 -348 128 -137 28 -358
28 -493 0z m339 -753 l36 -36 3 -103 4 -104 51 -13 c28 -7 91 -33 141 -58 160
-80 298 -242 349 -409 l22 -73 130 0 c145 0 180 -11 210 -69 34 -67 11 -143
-55 -180 -32 -18 -55 -21 -154 -21 l-116 0 0 -290 0 -290 -104 0 -105 0 -3
213 c-3 204 -4 213 -26 245 -37 51 -88 72 -177 72 -118 0 -177 -40 -204 -135
-6 -22 -11 -119 -11 -217 l0 -178 -90 0 -90 0 0 194 c0 207 -5 233 -48 280
-39 41 -82 56 -161 56 -107 0 -156 -26 -192 -105 -16 -34 -19 -67 -19 -232 l0
-193 -100 0 -100 0 0 290 0 290 -110 0 c-125 0 -162 11 -203 59 -49 59 -28
159 42 196 22 11 62 15 155 15 l124 0 27 80 c73 219 299 426 508 465 l37 7 0
92 c0 73 4 97 20 124 50 81 143 94 209 28z m889 -1827 c59 -29 90 -92 73 -150
-6 -20 -27 -51 -46 -68 l-36 -31 -125 0 -125 0 6 -47 c5 -45 385 -4233 385
-4247 0 -3 -202 -6 -450 -6 l-450 0 0 236 c0 271 -5 300 -65 359 -80 80 -198
85 -281 13 -71 -63 -74 -77 -74 -358 l0 -250 -450 0 -450 0 1 43 c0 23 15 197
32 387 l32 345 125 5 c74 3 134 10 147 18 49 27 67 106 38 162 -25 48 -61 60
-180 60 -102 0 -105 1 -105 23 0 12 9 117 20 232 11 116 20 216 20 223 0 9 41
12 171 12 134 0 178 3 204 16 73 34 87 142 25 197 l-30 27 -175 0 -174 0 4 28
c3 15 11 108 20 207 8 99 18 199 21 223 l5 42 241 0 240 0 34 34 c28 28 34 42
34 75 0 56 -22 95 -64 115 -28 13 -71 16 -251 16 l-218 0 6 38 c3 20 14 130
23 245 l18 207 288 0 c317 0 333 3 363 60 8 16 15 48 15 71 0 33 -6 47 -34 75
l-34 34 -286 0 -286 0 0 23 c0 12 9 117 20 232 11 116 20 215 20 222 0 9 86
13 353 15 317 3 355 5 378 21 67 45 65 162 -5 208 -17 11 -88 15 -361 17
l-341 3 13 127 c6 70 12 146 12 170 l1 42 -115 0 c-131 0 -163 11 -195 63 -45
73 -6 172 76 197 16 4 449 9 963 9 l935 1 44 -21z"/>
    </g>
</svg>
